<?xml version="1.0" standalone="no"?>
<!DOCTYPE svg PUBLIC "-//W3C//DTD SVG 1.1//EN" "http://www.w3.org/Graphics/SVG/1.1/DTD/svg11.dtd" >
<svg xmlns="http://www.w3.org/2000/svg" xmlns:xlink="http://www.w3.org/1999/xlink" version="1.1">
<metadata></metadata>
<defs>
<font id="opiumnewcitalic" horiz-adv-x="1081" >
<font-face units-per-em="2048" ascent="1518" descent="-530" />
<missing-glyph horiz-adv-x="598" />
<glyph horiz-adv-x="0" />
<glyph horiz-adv-x="682" />
<glyph unicode=" "  horiz-adv-x="598" />
<glyph unicode="&#x09;" horiz-adv-x="598" />
<glyph unicode="&#xa0;" horiz-adv-x="598" />
<glyph unicode="!" horiz-adv-x="602" d="M102 74q0 61 47 104t103 43q48 0 76 -32t28 -76q0 -60 -48.5 -101t-100.5 -41t-78.5 31t-26.5 72zM242 334l75 829q17 191 47.5 252.5t108.5 61.5q88 0 88 -109q0 -32 -36 -177.5t-119 -455t-107 -401.5h-57z" />
<glyph unicode="&#x22;" horiz-adv-x="878" d="M176 940q16 375 37 471t102 96q76 0 76 -77q0 -76 -139 -490h-76zM537 940q16 375 37 471t102 96q76 0 76 -77q0 -73 -140 -490h-75z" />
<glyph unicode="#" horiz-adv-x="1202" d="M6 455q22 88 25 135q155 -21 266 -21q74 198 113 330q-164 0 -263 -18q20 79 23 131q160 -17 272 -17q131 367 150 482q35 -7 67 -7q10 0 40.5 3t37.5 4q-70 -158 -184 -482h258q44 131 91.5 289.5t53.5 192.5l74 -7l74 7q-54 -102 -182 -482q194 0 272 17 q-23 -64 -23 -131q-189 18 -282 18l-111 -330q144 0 273 21q-25 -80 -25 -135q-98 18 -199 18h-82q-117 -328 -149 -504q-38 6 -66 6q-38 0 -81 -6q51 128 112 294t72 210h-266q-105 -322 -152 -504q-37 6 -72 6q-37 0 -71 -6q28 61 92 228t100 276q-100 0 -258 -18z M401 569h271l108 330h-266q-62 -150 -113 -330z" />
<glyph unicode="$" horiz-adv-x="1202" d="M104 104q53 92 86 187q33 -112 98 -164.5t173 -60.5l106 612q-81 30 -139.5 62.5t-91 61.5t-50.5 63.5t-23 61t-5 60.5q0 167 127 302t320 159q13 92 10 160q30 -6 71 -6q32 0 62 6q-29 -71 -43 -152q106 -8 181.5 -33t152.5 -82q-84 -96 -117 -186q-76 194 -234 205 l-90 -514l93 -41q139 -61 199.5 -134t60.5 -173q0 -179 -145 -332.5t-361 -185.5q-23 -146 -21 -216q-35 7 -61 7q-37 0 -72 -7q46 170 53 209q-220 0 -340 131zM436 1057q0 -55 33 -92t133 -93l84 482q-109 -11 -179.5 -101.5t-70.5 -195.5zM561 70q132 23 219.5 123.5 t87.5 216.5q0 159 -204 239z" />
<glyph unicode="%" horiz-adv-x="1923" d="M274 1028q0 60 16.5 121t49.5 116t78 97.5t107 68t132 25.5q67 0 117.5 -24t79 -65t42 -88.5t13.5 -100.5q0 -70 -24.5 -141.5t-69.5 -132.5t-118 -99.5t-160 -38.5q-72 0 -126 24t-82.5 64t-41.5 83.5t-13 90.5zM418 1016q0 -95 32.5 -137.5t94.5 -42.5q72 0 123.5 57.5 t74.5 143t23 186.5q0 34 -4.5 59t-16.5 51t-38 39.5t-66 13.5q-59 0 -103.5 -34t-69.5 -89.5t-37.5 -118t-12.5 -128.5zM532 -39q258 504 758 1516q24 -7 47 -7q25 0 56 7q-427 -841 -758 -1516q-31 8 -47 8q-32 0 -56 -8zM1018 248q0 60 16.5 121t49.5 116t78 97.5t107 68 t132 25.5q54 0 97.5 -16t72 -43t47.5 -63.5t27 -75.5t8 -81q0 -55 -15 -112.5t-46.5 -111t-74.5 -95.5t-104.5 -67t-132.5 -25q-72 0 -125.5 24t-82 64t-41.5 83t-13 91zM1161 236q0 -181 127 -181q72 0 123.5 57.5t74.5 143t23 186.5q0 34 -4.5 59.5t-16.5 51t-38 39.5 t-66 14q-59 0 -103.5 -34t-69.5 -89.5t-37.5 -118t-12.5 -128.5z" />
<glyph unicode="&#x26;" horiz-adv-x="1560" d="M147 270q0 68 24 134.5t75 135.5t142 136.5t216 124.5q-80 152 -80 266q0 70 26 137.5t73 122t121.5 88t164.5 33.5q115 0 176.5 -54t61.5 -137q0 -219 -361 -434q163 -283 293 -456q88 97 318 419q19 -36 69 -86q-58 -80 -173 -209t-173 -182q11 -22 46.5 -72.5 t101 -140t75.5 -102.5q-55 6 -129 6q-78 0 -133 -6q-41 93 -100 184q-134 -114 -248 -161.5t-248 -47.5q-90 0 -157.5 25t-106 68.5t-56.5 95t-18 112.5zM342 336q0 -46 13.5 -89.5t42 -81t78.5 -60.5t116 -23q153 0 348 151q-65 99 -165.5 267t-131.5 231 q-85 -40 -146 -91.5t-93.5 -104.5t-47 -102t-14.5 -97zM676 1137q0 -55 14 -109.5t60 -140.5q118 76 181.5 163t63.5 177q0 50 -30.5 89.5t-92.5 39.5q-58 0 -104.5 -36.5t-69 -86t-22.5 -96.5z" />
<glyph unicode="'" horiz-adv-x="602" d="M219 940q16 375 37 471t102 96q76 0 76 -77q0 -76 -139 -490h-76z" />
<glyph unicode="(" horiz-adv-x="600" d="M133 360q0 657 516 1147l45 -47q-99 -103 -176.5 -235.5t-121.5 -257t-72.5 -258.5t-38 -233.5t-9.5 -188.5q0 -259 125 -488l-65 -59q-203 265 -203 620z" />
<glyph unicode=")" horiz-adv-x="600" d="M-92 -201q97 100 173.5 231.5t120.5 256t73 256.5t39 229.5t10 177.5q0 148 -27.5 271.5t-95.5 238.5l61 47q205 -276 205 -628q0 -323 -129 -612.5t-385 -526.5z" />
<glyph unicode="*" horiz-adv-x="1200" d="M199 948l49 15q115 38 233 100l49 31l-38 28q-101 67 -199 101l-41 16q67 54 92 127l31 -31q51 -54 100 -90l74 -61l26 -21l7 47l16 113q3 49 0 121v41l72 -6l75 6l-16 -41q-31 -79 -41 -121l-24 -113l-11 -47l37 21l94 61q42 22 131 90l39 31q0 -78 52 -127l-48 -16 q-117 -36 -235 -101l-47 -28l37 -31q64 -44 200 -100l39 -15q-68 -56 -94 -129l-29 33q-16 14 -48.5 44t-49.5 46l-74 59l-28 21l-6 -45l-17 -115q-4 -90 0 -119v-41l-71 5l-76 -5l16 41q25 61 41 119l25 115l10 45l-35 -21l-94 -59q-93 -61 -133 -90l-41 -33q3 71 -49 129z " />
<glyph unicode="+" horiz-adv-x="1923" d="M389 483l21 115h503l88 500h111l-88 -500h504l-21 -115h-503l-89 -503h-110l88 503h-504z" />
<glyph unicode="," horiz-adv-x="602" d="M45 -379l236 488q56 112 131 112q69 0 69 -57t-86 -172l-309 -398z" />
<glyph unicode="-" horiz-adv-x="745" d="M45 483l21 115h679l-20 -115h-680z" />
<glyph unicode="." horiz-adv-x="602" d="M178 74q0 61 47 104t103 43q48 0 76 -32t28 -76q0 -60 -48.5 -101t-100.5 -41t-78.5 31t-26.5 72z" />
<glyph unicode="/" horiz-adv-x="602" d="M-205 -35q78 110 431 782t427 857q51 -7 84 -7q8 0 39 3t43 4q-122 -199 -454.5 -829t-399.5 -810q-49 6 -82 6q-47 0 -88 -6z" />
<glyph unicode="0" horiz-adv-x="1202" d="M104 438q0 87 11 179.5t35.5 192.5t61 191.5t91.5 174.5t122 143.5t157.5 96.5t193.5 36q106 0 184.5 -36t125.5 -103t69.5 -155.5t22.5 -199.5q0 -80 -10 -166.5t-33.5 -184t-59 -187.5t-91 -173t-124 -144t-163 -97.5t-203.5 -36.5q-196 0 -293 126t-97 343zM291 385 q0 -324 233 -324q78 0 145 41t113 107.5t82.5 155.5t58 180t36 186.5t19.5 169t5 133.5q0 326 -231 326q-75 0 -140.5 -43.5t-111.5 -113.5t-83.5 -162t-60 -185.5t-38 -187.5t-21.5 -164t-6 -119z" />
<glyph unicode="1" horiz-adv-x="1202" d="M360 1219q72 22 262.5 99.5t301.5 133.5q-63 -256 -138.5 -689t-119.5 -769q-46 6 -101 6q-53 0 -106 -6q54 226 128.5 636t106.5 630l-266 -140q-26 57 -68 99z" />
<glyph unicode="2" horiz-adv-x="1202" d="M0 6l565 506q178 158 265.5 323.5t87.5 321.5q0 42 -9.5 76t-31.5 64t-64 46.5t-100 16.5q-102 0 -180 -59.5t-138 -192.5l-63 137q67 89 184.5 148t241.5 59q177 0 267.5 -82.5t90.5 -212.5q0 -74 -20 -141.5t-52.5 -126t-94.5 -130t-125.5 -133t-166.5 -153.5 l-368 -330q488 0 678 21q-31 -114 -31 -182q-111 18 -334 18h-229q-197 0 -363 -18z" />
<glyph unicode="3" horiz-adv-x="1202" d="M70 47q22 61 53 170q75 -101 133 -134.5t141 -33.5q93 0 170.5 36.5t127 98t77 140t27.5 163.5q0 98 -54 159t-174 61q-59 0 -125 -19q19 71 21 117q58 -19 94 -19q121 0 209 116t88 280q0 82 -45 136t-131 54q-71 0 -141 -43t-154 -143q-3 63 -31 137q186 129 383 129 q154 0 237 -77.5t83 -207.5q0 -46 -18 -102.5t-53 -115t-95.5 -108t-136.5 -71.5q256 -53 256 -262q0 -152 -79.5 -275t-224 -193.5t-325.5 -70.5q-89 0 -163.5 16t-149.5 62z" />
<glyph unicode="4" horiz-adv-x="1202" d="M14 397q162 168 482 534.5t409 495.5q43 -6 99 -6q46 0 92 6l-2 -4q-61 -178 -172 -880q93 0 196 20q-25 -111 -31 -180q-49 16 -139 16h-53q-39 -217 -53 -405q-11 1 -30.5 2.5t-35.5 2.5t-31 1q-1 0 -112 -6q56 215 86 405h-305q-175 0 -387 -16zM272 549 q129 -6 213 -6h168q45 0 95 4l131 708q-445 -497 -607 -706z" />
<glyph unicode="5" horiz-adv-x="1202" d="M72 59q45 72 75 158q69 -93 131.5 -124.5t137.5 -31.5q93 0 173 44t132 114t81 155t29 169q0 35 -5.5 68t-21 69.5t-40.5 63t-68 44t-98 17.5q-120 0 -258 -107l-16 13q104 405 127 729q135 -19 188 -19h295q90 0 223 19q-25 -83 -31 -183q-237 21 -589 21 q-48 -187 -91 -428q153 47 240 47q76 0 137.5 -19t101.5 -51.5t67 -76.5t38.5 -91.5t11.5 -99.5q0 -112 -49 -220t-132.5 -191t-205.5 -133t-258 -46q-193 6 -325 90z" />
<glyph unicode="6" horiz-adv-x="1202" d="M131 387q0 195 61.5 386t167 341.5t261 244t329.5 93.5q50 0 99 -8q11 -72 18 -105q-69 17 -131 17q-100 0 -188.5 -51t-159.5 -144t-126.5 -215.5t-96.5 -273.5q144 198 385 198q167 0 258.5 -88t91.5 -247q0 -66 -20 -140t-65.5 -150.5t-110 -137.5t-162 -99.5 t-212.5 -38.5q-195 0 -297 109t-102 309zM324 322q0 -119 57 -190t168 -71q78 0 145.5 42t111.5 110.5t68.5 153.5t24.5 172q0 107 -53 173t-160 66q-81 0 -151 -43t-115 -110t-70.5 -146.5t-25.5 -156.5z" />
<glyph unicode="7" horiz-adv-x="1202" d="M96 -6q173 197 460 570t521 689h-327q-297 0 -396 -18q30 131 35 205q149 -19 410 -19h286q110 0 215 6l11 -24q-400 -535 -616.5 -833t-286.5 -405.5t-99 -170.5q-47 6 -92 6q-71 0 -121 -6z" />
<glyph unicode="8" horiz-adv-x="1202" d="M82 311q0 46 11.5 100t40.5 117t71 117.5t111 99.5t153 64q-90 18 -138 88.5t-48 155.5q0 164 134.5 281.5t344.5 117.5q162 0 260 -81.5t98 -209.5q0 -55 -17.5 -109t-52 -103.5t-92.5 -87t-133 -52.5q118 -30 180 -120t62 -210q0 -104 -34.5 -191t-91 -144.5t-131 -98 t-153 -58.5t-157.5 -18q-84 0 -157.5 20t-132.5 60t-93.5 107t-34.5 155zM283 303q0 -113 60 -177.5t173 -64.5q156 0 253 122t97 294q0 122 -57 202.5t-170 80.5q-100 1 -183 -66t-128 -172t-45 -219zM467 1034q0 -32 9.5 -62.5t30 -58t59 -44.5t89.5 -17q66 0 119.5 26.5 t86.5 70.5t50 96.5t17 107.5q0 80 -46.5 143.5t-136.5 63.5q-62 0 -116 -32t-88.5 -81.5t-54 -105.5t-19.5 -107z" />
<glyph unicode="9" horiz-adv-x="1200" d="M164 150q125 -89 217 -89q69 0 135.5 31.5t121.5 85t103 123t84.5 147.5t62 155.5t38.5 150.5q-84 -104 -174 -150.5t-203 -46.5q-159 0 -253.5 94t-94.5 240q0 99 38 197.5t107 180t179.5 132.5t242.5 51q196 0 292.5 -114.5t96.5 -313.5q0 -185 -65 -375t-172.5 -340 t-258 -245t-309.5 -95q-90 0 -166 35q0 60 -22 146zM401 887q0 -112 56.5 -175t160.5 -63q84 0 153 47t109.5 118.5t62.5 148t22 143.5q0 109 -53 181.5t-162 72.5q-106 0 -187.5 -70.5t-121.5 -177t-40 -225.5z" />
<glyph unicode=":" horiz-adv-x="602" d="M109 74q0 61 46.5 104t102.5 43q48 0 76 -32t28 -76q0 -60 -48.5 -101t-100.5 -41q-51 0 -77.5 31t-26.5 72zM240 813q0 61 46.5 104.5t102.5 43.5q48 0 76.5 -32.5t28.5 -76.5q0 -60 -49 -100.5t-101 -40.5t-78 30.5t-26 71.5z" />
<glyph unicode=";" horiz-adv-x="602" d="M-33 -379l236 488q56 112 131 112q69 0 69 -57t-86 -172l-309 -398zM272 813q0 61 47 104.5t103 43.5q48 0 76 -32.5t28 -76.5q0 -60 -48.5 -100.5t-100.5 -40.5t-78.5 30.5t-26.5 71.5z" />
<glyph unicode="&#x3c;" horiz-adv-x="2162" d="M426 596q23 41 23 82q0 5 -5 20q277 105 759.5 308.5t604.5 263.5q-6 -30 -6 -53q0 -39 27 -74q-306 -108 -1196 -496q188 -101 528.5 -268t491.5 -227q-52 -46 -66 -127q-229 123 -610.5 311t-550.5 260z" />
<glyph unicode="=" horiz-adv-x="1896" d="M356 348l19 113h1118l-18 -113h-1119zM403 616l21 115h1118l-20 -115h-1119z" />
<glyph unicode="&#x3e;" horiz-adv-x="2162" d="M334 152q172 60 569.5 226t626.5 269q-268 139 -573.5 288.5t-446.5 207.5q50 42 65 127q97 -59 507.5 -262.5t652.5 -309.5q-15 -25 -15 -102q-195 -71 -643 -259t-723 -312q6 30 6 55q0 43 -26 72z" />
<glyph unicode="?" horiz-adv-x="841" d="M225 74q0 61 47 104t103 43q48 0 76 -32t28 -76q0 -60 -48.5 -101t-100.5 -41t-78.5 31t-26.5 72zM233 541q0 96 58 187t194 212q130 116 175 182t45 125q0 58 -40.5 101t-111.5 43q-86 0 -205 -99l2 117q139 68 240 68q132 0 197 -66.5t65 -167.5q0 -103 -57.5 -197 t-204.5 -237q-119 -118 -164 -180.5t-45 -102.5q0 -44 24.5 -70t75.5 -26q25 0 82 29l-63 -115h-47q-108 0 -164 56.5t-56 140.5z" />
<glyph unicode="@" horiz-adv-x="1441" d="M74 604q0 102 27 205t78.5 200.5t132 182t180.5 148.5t232 100.5t280 36.5q68 0 122.5 -7.5t105.5 -27.5t85 -51.5t54 -83t20 -119.5q0 -61 -52.5 -347t-52.5 -321q0 -36 12 -46.5t39 -10.5q19 0 43 4l4 -51q-90 -33 -151 -33q-57 0 -86 27t-33 106q-99 -65 -181 -99 t-171 -34q-135 0 -200.5 59t-65.5 156q0 150 95 237.5t265 118.5l215 39q88 15 122 56t34 139q0 103 -70.5 148.5t-214.5 45.5q-118 0 -224 -49.5t-181.5 -131t-131 -184t-83 -210.5t-27.5 -209q0 -78 13.5 -148.5t48 -138.5t87 -117.5t135.5 -79.5t189 -30 q113 0 228.5 37.5t252.5 140.5l11 -24l-41 -127q-239 -121 -502 -121q-173 0 -300 47.5t-200.5 133t-108 193t-34.5 240.5zM698 633q0 -131 170 -131q152 0 265 116l55 316l-133 -21q-104 -16 -175 -42t-110 -63t-55.5 -79t-16.5 -96z" />
<glyph unicode="A" horiz-adv-x="1441" d="M-61 -4q57 75 163.5 237t230.5 360.5t228.5 368t204.5 333.5t111 182h51q46 -207 185.5 -749t205.5 -732q-62 4 -113 4t-121 -4q-8 35 -59 262.5t-70 294.5q-115 18 -280 18q-145 0 -258 -18q-83 -123 -316 -557q-40 4 -75 4q-42 0 -88 -4zM506 694q114 -14 205 -14 q85 0 204 14q-28 140 -116 477z" />
<glyph unicode="B" horiz-adv-x="1327" d="M104 -6q67 298 153.5 773t109.5 716q153 -6 208 -6q30 0 102.5 3t88.5 3q92 0 161.5 -7t129.5 -25t98.5 -47.5t60 -75t21.5 -107.5q0 -58 -20 -114.5t-64 -113.5t-124 -107t-189 -83q317 -69 317 -291q0 -230 -183.5 -374t-484.5 -144q-41 0 -136.5 3t-123.5 3 q-38 0 -125 -6zM326 113q90 -4 174 -4q83 0 158.5 21.5t141 65.5t105 122t39.5 180q0 40 -8 70.5t-35.5 63t-75 53.5t-131.5 34.5t-200 13.5h-58zM455 846q46 -4 108 -4q211 0 333 93.5t122 231.5q0 101 -78 151t-221 50q-86 0 -172 -4z" />
<glyph unicode="C" horiz-adv-x="1443" d="M115 561q0 192 70 364.5t194 301.5t304.5 204.5t389.5 75.5q293 0 467 -100l-82 -172h-33q-163 176 -381 176q-116 0 -219 -38t-179 -102.5t-136 -148.5t-97.5 -178.5t-57 -188.5t-19.5 -182q0 -62 10.5 -123.5t42 -133t81 -125t137.5 -89.5t202 -36q247 0 479 176 l12 -23l-43 -129q-131 -67 -250 -94t-249 -27q-164 0 -290.5 48t-202 131.5t-113 187.5t-37.5 225z" />
<glyph unicode="D" horiz-adv-x="1662" d="M104 -6q77 350 155.5 787t107.5 702q74 -6 221 -6q54 0 187 3t194 3q139 0 250 -28.5t185 -78t123.5 -118t71 -146t21.5 -164.5q0 -78 -13.5 -160.5t-48.5 -177.5t-88 -181t-139 -166.5t-194.5 -139.5t-261 -94t-332.5 -35q-38 0 -132.5 3t-127.5 3q-124 0 -179 -6z M332 113q110 -4 243 -4q127 0 235.5 25t186.5 66t141.5 99t104.5 118t71.5 129.5t46 126.5t25 116t11.5 91.5t2 59.5q0 111 -32 189t-104.5 132.5t-192 80.5t-292.5 26q-119 0 -225 -4q-139 -722 -221 -1251z" />
<glyph unicode="E" d="M104 -6q76 329 156 777.5t109 711.5q67 -6 301 -6h227q125 0 256 16q-27 -73 -27 -141q-169 16 -397 16q-120 0 -170 -4q-54 -220 -106 -539h155q202 0 375 19q-27 -63 -27 -144q-94 17 -522 17q-80 -415 -100 -608h198q123 0 381 16q-24 -87 -24 -131q-123 6 -359 6 h-151q-173 0 -275 -6z" />
<glyph unicode="F" horiz-adv-x="1067" d="M104 -6q75 326 154 768.5t111 720.5q126 -6 297 -6h204q35 0 142.5 5.5t163.5 10.5q-23 -63 -27 -141q-169 16 -424 16h-170q-25 -109 -100 -532h155q259 0 404 16q-16 -49 -21 -72q-4 -36 -4 -71q-39 7 -216 12.5t-337 5.5q-85 -484 -114 -733q-50 6 -103 6 q-63 0 -115 -6z" />
<glyph unicode="G" horiz-adv-x="1683" d="M113 543q0 151 39 291.5t121 263t198.5 213.5t282 143.5t360.5 52.5q151 0 274 -28t257 -109q-67 -107 -82 -160l-29 -8q-180 209 -455 209q-139 0 -260 -49t-208 -133t-150 -193.5t-94 -232.5t-31 -248q0 -72 13.5 -137t51 -131t95 -113.5t153.5 -77.5t219 -30 q195 0 336 65q40 118 60.5 244.5t35.5 306.5q50 -6 113 -6q57 0 107 6q-108 -411 -111 -629q-230 -52 -340 -68t-244 -16q-189 0 -330 46t-222.5 127t-120.5 181t-39 220z" />
<glyph unicode="H" horiz-adv-x="1677" d="M104 -6q77 350 155.5 787t107.5 702q111 -6 116 -6q2 0 101 6q-36 -116 -127 -625q301 -14 477 -14q175 0 407 16q87 518 93 623q111 -6 116 -6q2 0 101 6q-66 -264 -142 -704t-120 -785q-99 6 -101 6q-18 0 -117 -6q68 298 144 725q-227 16 -410 16q-184 0 -473 -16 q-73 -420 -110 -725q-99 6 -101 6q-18 0 -117 -6z" />
<glyph unicode="I" horiz-adv-x="610" d="M104 -6q77 350 155.5 787t107.5 702q111 -6 116 -6q2 0 101 6q-66 -264 -142 -704t-120 -785q-99 6 -101 6q-18 0 -117 -6z" />
<glyph unicode="J" horiz-adv-x="608" d="M-193 -315q4 30 4 54q0 12 -1 23q51 6 90.5 16.5t72.5 34.5t56 46t44.5 70t35.5 85.5t31 114t28.5 134.5t30.5 167l92 528q71 394 74 525q111 -6 116 -6q2 0 101 6q-46 -182 -107 -522l-94 -535q-5 -29 -19 -126.5t-18 -121.5q-83 -470 -537 -493z" />
<glyph unicode="K" horiz-adv-x="1320" d="M104 -6q77 350 155.5 787t107.5 702q111 -6 116 -6q2 0 101 6q-39 -126 -138 -682q132 87 373.5 298.5t421.5 383.5q105 -6 109 -6q19 0 106 6q-483 -382 -813 -668q105 -160 281.5 -413.5t289.5 -407.5q-64 6 -131 6q-87 0 -139 -6q-151 274 -506 751 q-76 -422 -116 -751q-99 6 -101 6q-18 0 -117 -6z" />
<glyph unicode="L" horiz-adv-x="1064" d="M104 -6q75 339 153.5 778t109.5 711q111 -6 116 -6q2 0 101 6q-93 -355 -252 -1374h252q221 0 338 16q-23 -81 -23 -131q-99 6 -240 6h-329q-118 0 -226 -6z" />
<glyph unicode="M" horiz-adv-x="1923" d="M-6 -6q71 192 229 689.5t246 793.5h41q52 -176 207 -612t215 -560q332 466 842 1172h38q-27 -356 -53.5 -825t-29.5 -658q-47 6 -99 6q-57 0 -110 -6q12 122 40.5 508t38.5 579q-78 -99 -318.5 -447t-430.5 -634h-39q-183 589 -358 1063q-60 -181 -163 -545t-132 -524 q-35 6 -76 6q-50 0 -88 -6z" />
<glyph unicode="N" horiz-adv-x="1646" d="M104 -6q75 339 153.5 777.5t109.5 705.5h57l868 -1127q177 1011 183 1133q46 -6 73 -6q18 0 72 6q-66 -272 -143.5 -717.5t-122.5 -794.5h-58q-131 196 -237 330l-629 807q-145 -820 -180 -1114q-34 6 -72 6q-44 0 -74 -6z" />
<glyph unicode="O" horiz-adv-x="1796" d="M115 569q0 158 49.5 303.5t139 260t208 199t263 130t298.5 45.5q168 0 300.5 -47t216.5 -129.5t127.5 -191t43.5 -234.5q0 -109 -30.5 -220.5t-87.5 -216t-143.5 -195.5t-191.5 -158.5t-239.5 -106.5t-280.5 -39q-165 0 -295.5 47.5t-212 130t-123.5 190t-42 232.5z M336 565q0 -66 11.5 -129.5t44.5 -132.5t84.5 -120t138 -84t198.5 -33q162 0 300 71t230.5 190t144.5 275t52 326q0 76 -13 142.5t-47 130.5t-86.5 109.5t-137.5 73t-195 27.5q-152 0 -277.5 -56t-206.5 -144.5t-137 -202t-80 -225t-24 -218.5z" />
<glyph unicode="P" horiz-adv-x="1239" d="M104 -6q77 350 155.5 787t107.5 702q204 -6 206 -6q38 0 116 3t102 3q138 0 232.5 -20t145 -59.5t71 -88.5t20.5 -117q0 -130 -51 -231t-144.5 -165.5t-221 -98t-284.5 -33.5q-55 0 -133 8q-40 -206 -69.5 -403.5t-34.5 -280.5q-52 6 -103 6q-65 0 -115 -6zM444 786 q50 -8 86 -8q233 0 376 107.5t143 277.5q0 108 -82 156.5t-238 48.5q-139 0 -182 -6z" />
<glyph unicode="Q" horiz-adv-x="1794" d="M113 569q0 183 70.5 353t194 299.5t304 207.5t387.5 78q136 0 250 -30t194.5 -84t136.5 -127.5t82.5 -160t26.5 -183.5q0 -209 -94.5 -404t-253 -330t-344.5 -182q248 -226 436 -352q-123 -51 -209 -96q-229 266 -417 411h-78q-144 0 -260 31.5t-194.5 86t-131.5 131.5 t-76.5 164t-23.5 187zM336 573q0 -244 128.5 -375.5t332.5 -131.5q152 0 289 68t236 184t157.5 277.5t58.5 340.5q0 69 -13.5 133t-48 127.5t-87 110t-137.5 75.5t-193 29q-154 0 -280.5 -58.5t-206.5 -149t-135 -205t-78 -221.5t-23 -204z" />
<glyph unicode="R" horiz-adv-x="1327" d="M104 -6q77 350 155.5 787t107.5 702q89 -6 233 -6q25 0 133 3t150 3q188 0 282.5 -73t94.5 -193q0 -79 -30.5 -155t-91 -144t-163.5 -116t-234 -63q213 -351 297.5 -484t175.5 -261q-70 6 -141 6q-75 0 -137 -6q-78 152 -201.5 358.5t-228.5 364.5h-74 q-81 -466 -110 -723q-52 6 -103 6q-65 0 -115 -6zM453 825h86q222 0 357.5 93t135.5 253q0 85 -75.5 141t-241.5 56q-125 0 -168 -6z" />
<glyph unicode="S" d="M25 100q48 93 63 156l27 4q113 -194 301 -194q73 0 139.5 32t112 82.5t72 113.5t26.5 124q0 160 -170 233l-170 74q-205 88 -205 299q0 206 148.5 344.5t375.5 138.5q195 0 312 -104q-37 -61 -82 -154l-27 -4q-62 166 -243 166q-135 0 -220.5 -87.5t-85.5 -213.5 q0 -82 43 -133.5t142 -91.5l178 -74q71 -29 115.5 -82.5t58.5 -102.5t14 -102q0 -108 -40 -206.5t-113.5 -177t-189.5 -125t-257 -46.5q-98 0 -177 26t-148 105z" />
<glyph unicode="T" horiz-adv-x="1183" d="M197 1352q20 53 26 141q267 -16 537 -16q268 0 545 16q-22 -71 -27 -141q-112 16 -397 16h-39q-148 -710 -236 -1374q-93 6 -100 6q-12 0 -117 -6q143 626 252 1374h-39q-287 0 -405 -16z" />
<glyph unicode="U" horiz-adv-x="1652" d="M205 395q0 65 76 494t86 594q111 -6 116 -6q2 0 101 6q-53 -216 -120 -590t-67 -463q0 -56 10.5 -104t37.5 -93.5t69 -77.5t109 -51.5t153 -19.5t157 17t125.5 46.5t98.5 77.5t75.5 103t58 131t44.5 152.5t35 176.5q103 580 107 695q40 -6 75 -6q30 0 74 6 q-40 -137 -139 -695q-40 -231 -102.5 -386.5t-159 -252.5t-221.5 -138.5t-299 -41.5q-135 0 -233.5 32t-155.5 91t-84 134t-27 169z" />
<glyph unicode="V" horiz-adv-x="1441" d="M190 1483q117 -6 132 -6q11 0 116 6q20 -166 107.5 -558.5t163.5 -680.5q167 281 397.5 691t290.5 548q53 -6 86 -6q1 0 88 6q-98 -143 -389.5 -637.5t-489.5 -851.5q-34 6 -69 6q-52 0 -82 -6q-16 128 -149.5 688.5t-201.5 800.5z" />
<glyph unicode="W" horiz-adv-x="2162" d="M205 1483q76 -6 131 -6q3 0 96 6q10 -184 56 -570.5t94 -701.5q529 1021 632 1272q69 -6 72 -6q6 0 66 6q14 -138 74 -534.5t112 -702.5q99 187 317 643.5t277 593.5q35 -6 78 -6q3 0 84 6q-193 -348 -450.5 -839t-323.5 -650q-34 6 -74 6q-48 0 -78 -6q-18 158 -79 597 t-89 615q-44 -85 -286 -544t-347 -668q-60 6 -71 6q-9 0 -78 -6q-38 338 -109.5 851t-103.5 638z" />
<glyph unicode="X" horiz-adv-x="1320" d="M-25 -6q84 93 340 397t293 357q-40 102 -171.5 395t-162.5 340q83 -6 138 -6q64 0 108 6q36 -106 108.5 -288t119.5 -288q119 140 266 327t188 249q43 -6 94 -6q46 0 80 6q-76 -79 -253.5 -283t-327.5 -385q39 -107 163.5 -392.5t196.5 -428.5q-67 6 -133 6q-6 0 -123 -6 q-54 185 -244 657q-288 -353 -505 -657q-38 6 -78 6q-56 0 -97 -6z" />
<glyph unicode="Y" horiz-adv-x="1320" d="M205 1483q129 -6 131 -6q34 0 133 6q98 -321 268 -731q146 181 309.5 407t217.5 324q11 -1 31.5 -2.5t36 -2.5t24.5 -1t25.5 1t39 2.5t33.5 2.5q-110 -115 -674 -834q-68 -425 -98 -655q-99 6 -100 6q-18 0 -117 -6q49 200 123 606q-196 469 -261.5 618.5t-121.5 264.5z " />
<glyph unicode="Z" horiz-adv-x="1320" d="M-68 16q145 161 604 696t556 656q-625 0 -828 -16q23 93 25 141q98 -16 512 -16q238 0 608 16l2 -45q-221 -233 -565.5 -634.5t-587.5 -704.5h371q385 0 545 16q-23 -75 -25 -141q-109 16 -457 16h-411q-136 0 -332 -16z" />
<glyph unicode="[" horiz-adv-x="602" d="M-6 -344q107 478 176.5 888t146.5 951q102 -18 220 -18q55 0 213 18l-23 -129q-121 27 -235 33l-291 -1647q136 13 248 33l-23 -129q-148 18 -225 18q-89 0 -207 -18z" />
<glyph unicode="\" horiz-adv-x="602" d="M74 1604q47 -7 90 -7q29 0 76 7q20 -233 110.5 -777.5t165.5 -861.5q-34 6 -76 6q-52 0 -90 -6q-25 315 -107 775.5t-169 863.5z" />
<glyph unicode="]" horiz-adv-x="602" d="M-147 -344l22 129q100 -19 236 -33l290 1647q-121 -7 -247 -33l22 129q148 -18 209 -18q115 0 223 18q-79 -357 -143 -706.5t-97.5 -567.5t-82.5 -565q-113 18 -203 18q-74 0 -229 -18z" />
<glyph unicode="^" d="M57 1051l19 98q313 208 465 473h108q35 -139 100.5 -248.5t196.5 -224.5l-18 -98q-116 47 -215.5 120.5t-167.5 161.5q-91 -84 -225 -163.5t-263 -118.5z" />
<glyph unicode="_" d="M-10 -475l20 108h1082l-21 -108h-1081z" />
<glyph unicode="`" horiz-adv-x="1202" d="M336 1470l18 27q75 -10 111 -10q28 0 123 10q17 -78 52 -173.5t71 -166.5h-78q-112 146 -297 313z" />
<glyph unicode="a" horiz-adv-x="1040" d="M25 176q0 147 89 241.5t257 123.5l266 47q40 7 65 21.5t36.5 40t15.5 52.5t4 70q0 199 -207 199q-200 0 -305 -164h-25l21 119q185 125 372 125q143 0 225.5 -66.5t82.5 -202.5q0 -62 -52.5 -351t-52.5 -329q0 -31 12.5 -41t38.5 -10q19 0 43 4l2 -51q-96 -33 -151 -33 q-104 0 -113 90l-4 45q-192 -135 -354 -135q-131 0 -198.5 60.5t-67.5 144.5zM227 227q0 -137 170 -137q136 0 269 117l55 315l-139 -20q-178 -27 -266.5 -93.5t-88.5 -181.5z" />
<glyph unicode="b" horiz-adv-x="1204" d="M41 -20q71 269 177.5 880.5t111.5 747.5q99 -6 102 -6q10 0 26.5 1t38.5 2.5t33 2.5q-51 -151 -155 -774q175 217 407 217q167 0 262 -107t95 -282q0 -83 -23 -175.5t-72.5 -184.5t-118 -165.5t-169 -119.5t-215.5 -46q-92 0 -164 36t-109 110l-207 -146zM303 322 q0 -124 54 -191.5t178 -67.5q68 0 128 28.5t103.5 77t78 109.5t55 129.5t31.5 134.5t11 126q0 135 -56 212.5t-173 77.5q-77 0 -142 -34.5t-108 -91.5t-75.5 -125t-50 -141.5t-26 -134t-8.5 -109.5z" />
<glyph unicode="c" horiz-adv-x="1034" d="M66 393q0 191 88.5 342.5t239 233.5t333.5 82q185 0 338 -90l-78 -154h-24q-71 164 -256 164q-99 0 -185.5 -52.5t-142 -135.5t-87.5 -181.5t-32 -193.5q0 -161 85 -259t243 -98q75 0 140.5 27t162.5 115l14 -23l-43 -100q-167 -99 -352 -99q-207 0 -325.5 115.5 t-118.5 306.5z" />
<glyph unicode="d" horiz-adv-x="1206" d="M66 354q0 105 24.5 206t74 189.5t117.5 156t161.5 106.5t199.5 39q66 0 127 -20.5t110.5 -67t63.5 -111.5q102 563 117 756q99 -6 102 -6l99 6q-67 -247 -173 -856.5t-112 -757.5q-47 6 -94 6q-61 0 -107 -6q30 112 47 201q-157 -224 -399 -224q-89 0 -160 33t-113 88.5 t-63.5 122t-21.5 139.5zM258 348q0 -41 5.5 -78t21.5 -76t40 -67t65 -46t93 -18q87 0 158.5 42.5t116 107.5t74.5 147.5t42.5 158t12.5 143.5q0 135 -55 215.5t-170 80.5q-71 0 -131 -24.5t-100.5 -64.5t-72.5 -94.5t-50 -110.5t-30 -117t-16 -108.5t-4 -90.5z" />
<glyph unicode="e" d="M66 377q0 95 22.5 189.5t71.5 182t118.5 154.5t171 107.5t220.5 40.5q183 0 273.5 -87.5t90.5 -265.5q0 -77 -30 -204q-156 16 -254 16h-478q-14 -80 -14 -158q0 -148 73.5 -224.5t217.5 -76.5q101 0 186.5 40.5t173.5 121.5l17 -20l-43 -103q-190 -119 -394 -119 q-199 0 -311 109t-112 297zM289 602h540q17 102 17 131q0 102 -53.5 170t-147.5 68q-128 0 -220.5 -102t-135.5 -267z" />
<glyph unicode="f" horiz-adv-x="600" d="M61 -6q31 107 70 310.5t115 627.5h-35q-35 0 -111 -17q21 64 21 125q49 -16 106 -16h35q20 119 78 232t130.5 190.5t151 124.5t142.5 47q37 0 55 -6q-24 -100 -33 -189q-76 31 -120 31q-34 0 -62 -6.5t-49.5 -17t-38.5 -30.5t-29 -39t-21 -51.5t-14.5 -58t-10 -68.5 t-6.5 -75t-5 -84q91 0 227 16q-20 -90 -20 -125q-119 17 -166 17h-61q-134 -750 -148 -938q-43 6 -92 6q-60 0 -109 -6z" />
<glyph unicode="g" horiz-adv-x="1089" d="M-49 -205q0 94 71 170t224 123q-65 18 -98 49t-33 82q0 134 198 207q-184 53 -184 225q0 184 141 292t377 108q59 0 138 -5.5t83 -5.5q126 0 248 17q-20 -54 -20 -115l-199 16q76 -76 76 -178q0 -68 -28.5 -130.5t-76 -108.5t-107 -80.5t-123.5 -52t-124 -17.5h-94 q-76 0 -118 -26.5t-42 -75.5q0 -70 137 -70h240q148 0 228.5 -54.5t80.5 -154.5q0 -80 -43.5 -160.5t-119 -145.5t-190.5 -105.5t-247 -40.5q-83 0 -152 13t-125 40t-87 74t-31 110zM96 -195q0 -79 72.5 -123t198.5 -44q102 0 182.5 25t127.5 66.5t71 89t24 97.5 q0 164 -297 164q-185 0 -282 -74.5t-97 -200.5zM326 645q0 -37 7.5 -65.5t26 -54.5t54.5 -40t88 -14q111 0 192.5 86t81.5 231q0 30 -8 59.5t-27 58.5t-56.5 47t-88.5 18q-88 0 -151.5 -52t-91 -124t-27.5 -150z" />
<glyph unicode="h" horiz-adv-x="1163" d="M47 -6q38 128 153.5 768t129.5 846q12 -1 35 -2.5t40.5 -2.5t28.5 -1q3 0 96 6q-61 -222 -139 -738q65 89 161.5 135t197.5 46q137 0 220 -74t83 -203q0 -19 -27.5 -157.5t-58 -321t-35.5 -301.5q-46 6 -94 6q-60 0 -107 -6q36 116 81.5 363.5t45.5 340.5q0 236 -199 236 q-52 0 -94.5 -13t-77.5 -43t-62 -69t-50 -102t-40 -129t-32.5 -163.5t-28 -192.5t-26.5 -228q-46 6 -94 6q-60 0 -107 -6z" />
<glyph unicode="i" horiz-adv-x="589" d="M98 -6q76 318 109.5 509t75.5 527q99 -6 102 -6q10 0 26.5 1t38.5 2.5t33 2.5q-74 -303 -107.5 -495t-76.5 -541q-43 6 -92 6q-59 0 -109 -6zM340 1389q0 49 37.5 90t95.5 41q49 0 71.5 -21.5t22.5 -54.5q0 -57 -34 -101.5t-99 -44.5q-49 0 -71.5 26.5t-22.5 64.5z" />
<glyph unicode="j" horiz-adv-x="600" d="M-162 -377l60 15q52 12 94.5 55t70.5 104t44.5 117.5t27.5 116.5q59 338 84 483.5t47 293t27 222.5q12 -1 35 -2.5t40.5 -2.5t28.5 -1q4 0 97 6q-69 -251 -195 -999q-10 -57 -17.5 -91.5t-23.5 -84.5t-35.5 -81.5t-53 -69.5t-77 -63t-106 -47.5t-140.5 -35.5zM350 1389 q0 49 37.5 90t95.5 41q49 0 72 -21.5t23 -54.5q0 -57 -34.5 -101.5t-99.5 -44.5q-49 0 -71.5 26.5t-22.5 64.5z" />
<glyph unicode="k" horiz-adv-x="1069" d="M47 -6q50 171 164 826.5t119 787.5q12 -1 35 -2.5t40.5 -2.5t28.5 -1q3 0 96 6q-30 -109 -72 -329t-126 -699h33q45 0 263 195.5t263 254.5q81 -6 98 -6q4 0 103 6l-568 -438q41 -61 193 -274t235 -324q-80 6 -121 6q-69 0 -137 -6q-36 81 -141.5 242.5t-198.5 287.5h-32 q-1 -9 -11 -67t-18 -110t-18 -119t-17 -128.5t-10 -105.5q-46 6 -94 6q-60 0 -107 -6z" />
<glyph unicode="l" horiz-adv-x="569" d="M92 -6q49 165 161 796t122 818q12 -1 35 -2.5t40.5 -2.5t28.5 -1q3 0 96 6q-39 -133 -146 -722t-136 -892q-47 6 -94 6q-61 0 -107 -6z" />
<glyph unicode="m" horiz-adv-x="1773" d="M47 -6q57 225 115 552.5t67 483.5q12 -1 35 -2.5t40 -2.5t28 -1q5 0 98 6q-32 -112 -37 -153q67 89 158.5 131.5t187.5 42.5q116 0 182 -48t85 -165q67 97 166 155t221 58q141 0 206.5 -71.5t65.5 -186.5q0 -21 -25 -149.5t-56 -315.5t-42 -334q-46 6 -94 6 q-60 0 -107 -6q52 200 93 426.5t41 322.5q0 104 -41.5 147.5t-130.5 43.5q-62 0 -109.5 -17t-83.5 -50.5t-62.5 -88.5t-47 -126.5t-37.5 -169t-32.5 -211.5t-33.5 -258q-1 -13 -2 -19q-47 6 -94 6q-61 0 -107 -6q54 220 93.5 436t39.5 311q0 105 -42.5 149t-129.5 44 q-58 0 -103.5 -17.5t-81.5 -49.5t-64.5 -91.5t-50 -127t-41 -174t-34 -214.5t-32.5 -266q-46 6 -94 6q-60 0 -107 -6z" />
<glyph unicode="n" horiz-adv-x="1163" d="M47 -6q53 198 109 515t73 521q12 -1 35 -2.5t40 -2.5t28 -1q5 0 98 6q-30 -106 -39 -160q65 89 161.5 135t197.5 46q137 0 220 -74t83 -203q0 -19 -27.5 -157.5t-58 -321t-35.5 -301.5q-46 6 -94 6q-60 0 -107 -6q36 116 81.5 363.5t45.5 340.5q0 236 -199 236 q-52 0 -94.5 -13t-77.5 -43t-62 -69t-50 -102t-40 -129t-32.5 -163.5t-28 -192.5t-26.5 -228q-46 6 -94 6q-60 0 -107 -6z" />
<glyph unicode="o" horiz-adv-x="1191" d="M66 397q0 120 46 237t127.5 209.5t203.5 150t262 57.5q201 0 311 -116t110 -310q0 -124 -46.5 -241.5t-127 -209t-200.5 -147.5t-256 -56q-109 0 -193.5 34.5t-135 94.5t-76 135t-25.5 162zM258 365q0 -36 4.5 -72t20.5 -82t41.5 -79.5t72.5 -57t109 -23.5q100 0 184 58 t135.5 148t80 192.5t28.5 199.5q0 68 -13 124t-41 101.5t-78 71t-118 25.5q-80 0 -150 -39t-119.5 -103t-85.5 -143.5t-53.5 -162t-17.5 -158.5z" />
<glyph unicode="p" horiz-adv-x="1198" d="M-49 -451q49 164 150.5 731.5t111.5 749.5q12 -1 34.5 -2.5t39.5 -2.5t28 -1q6 0 99 6q-4 -16 -14.5 -56.5t-20 -82t-10.5 -43.5q95 106 182 154.5t205 48.5q175 0 268.5 -107.5t93.5 -294.5q0 -79 -21 -167.5t-67.5 -180t-113 -164.5t-167 -119.5t-219.5 -46.5 q-103 0 -168 31.5t-124 130.5q-72 -405 -86 -584q-51 7 -93 7q-50 0 -108 -7zM287 350q0 -287 237 -287q84 0 153 37t114 99t75.5 145t44 171.5t13.5 182.5q0 129 -60 194.5t-176 65.5q-80 0 -148 -39t-114 -101.5t-78 -143t-46.5 -163t-14.5 -161.5z" />
<glyph unicode="q" horiz-adv-x="1198" d="M70 397q0 182 70 332t195 236t279 86q80 0 139 -24t98.5 -66.5t76.5 -112.5q3 12 10.5 83.5t9.5 98.5q93 -6 94 -6q2 0 107 6q-74 -301 -157.5 -789.5t-104.5 -691.5q-51 7 -105 7q-38 0 -96 -7q49 171 123 584q-93 -98 -170 -130t-180 -32t-180.5 34.5t-121.5 95 t-65.5 134.5t-21.5 162zM256 338q0 -136 62.5 -205.5t179.5 -69.5q84 0 152.5 39t112.5 102t73.5 144t41.5 162q9 69 9 137v23q-2 63 -15 113t-40 90.5t-73.5 62.5t-109.5 22q-74 0 -136 -29t-103.5 -79.5t-72.5 -112t-48 -133.5t-25 -137.5t-8 -128.5z" />
<glyph unicode="r" horiz-adv-x="686" d="M47 -6q48 170 110.5 528.5t71.5 507.5q12 -1 35 -2.5t40 -2.5t28 -1q5 0 98 6q-26 -98 -47 -190q175 211 315 211q32 0 78 -15q-54 -96 -67 -182q-72 27 -109 27q-46 0 -84 -15t-68.5 -51.5t-53.5 -74.5t-42.5 -108t-32.5 -126t-27 -154.5t-22.5 -168t-21.5 -189.5 q-46 6 -94 6q-60 0 -107 -6z" />
<glyph unicode="s" horiz-adv-x="841" d="M8 55q38 54 92 150q38 -88 91 -121t126 -33q108 0 178 65t70 158q0 68 -51.5 104t-157.5 66q-113 32 -165 88.5t-52 145.5q0 157 119.5 265t292.5 108q77 0 127.5 -16.5t101.5 -53.5q-47 -70 -88 -150q-31 79 -77.5 109.5t-108.5 30.5q-88 0 -148.5 -61t-60.5 -140 q0 -70 49 -110t141 -64q131 -34 184.5 -82t53.5 -135q0 -74 -36 -147.5t-96.5 -131t-147.5 -93.5t-181 -36q-160 0 -256 84z" />
<glyph unicode="t" horiz-adv-x="638" d="M109 915q16 55 22 125q41 -16 133 -16q21 114 21 215q117 37 215 88q-35 -99 -72 -303q194 0 238 16q-15 -47 -23 -125q-69 17 -231 17l-109 -602q-18 -99 -18 -172q0 -105 127 -105q46 0 86 25l-13 -64q-75 -43 -161 -43q-104 0 -154.5 45.5t-50.5 141.5q0 58 20 166 l109 608q-24 0 -71 -5t-68 -12z" />
<glyph unicode="u" horiz-adv-x="1163" d="M109 238q0 39 22.5 152.5t53.5 291.5t46 348q99 -6 103 -6q10 0 26.5 1t38.5 2.5t33 2.5q-55 -211 -92 -403t-37 -291q0 -131 50.5 -189.5t148.5 -58.5q55 0 100.5 16t81.5 54.5t63.5 79.5t50 114.5t38 133.5t31 164t25 178.5t23.5 201.5q99 -6 103 -6q10 0 26.5 1 t38.5 2.5t33 2.5q-52 -184 -103.5 -473.5t-80.5 -562.5q-43 6 -92 6q-60 0 -109 -6q30 106 39 160q-64 -89 -160.5 -136t-197.5 -47q-135 0 -219 71.5t-84 195.5z" />
<glyph unicode="v" d="M115 1028q74 -4 118 -4q51 0 107 6q13 -125 70 -384.5t114 -434.5q128 209 270 465t179 354q44 -6 90 -6q30 0 84 4q-65 -73 -279.5 -425t-351.5 -607q-36 4 -63 4q-29 0 -72 -6q-42 217 -137.5 598t-128.5 436z" />
<glyph unicode="w" horiz-adv-x="1654" d="M117 1030q50 -6 110 -6q57 0 113 6q4 -130 44 -375t79 -413q85 145 211.5 395t189.5 393q30 -6 72 -6q36 0 74 6q7 -89 52 -361t75 -431q255 427 413 792q40 -6 86 -6q42 0 86 6q-126 -174 -314.5 -495.5t-295.5 -540.5q-27 6 -59 6q-29 0 -64 -6q-6 96 -22.5 212 t-29 183.5t-42 216.5t-37.5 189q-27 -52 -101.5 -191.5t-112.5 -212.5t-95 -187t-100 -210q-24 6 -62 6q-36 0 -63 -6q-67 498 -207 1036z" />
<glyph unicode="x" horiz-adv-x="1032" d="M-68 -6q269 275 488 506q-45 92 -146 272t-151 258q55 -6 123 -6q50 0 100 6q24 -66 85 -185t116 -214q95 99 199.5 216t154.5 183q34 -6 76 -6q41 0 78 6q-70 -65 -238 -234t-229 -237q53 -101 163 -291.5t164 -273.5q-53 6 -112 6q-73 0 -135 -6q-19 69 -81 195.5 t-126 236.5q-45 -45 -188.5 -209t-190.5 -223q-34 6 -72 6q-41 0 -78 -6z" />
<glyph unicode="y" horiz-adv-x="1077" d="M57 -451q55 62 171.5 221.5t158.5 225.5q-63 275 -148.5 607.5t-119.5 426.5q52 -6 125 -6q60 0 116 6v-18q0 -99 46 -320q52 -241 118 -475q126 206 274.5 478t159.5 335q49 -6 103 -6q43 0 86 6q-31 -28 -245.5 -364.5t-426 -693t-229.5 -423.5q-44 7 -82 7 q-49 0 -107 -7z" />
<glyph unicode="z" horiz-adv-x="1050" d="M-39 6q191 206 492.5 538.5t343.5 387.5q-397 0 -561 -19q20 67 20 127q185 -16 483 -16q218 0 332 16l16 -30q-114 -120 -402.5 -433t-444.5 -485h252q126 0 247 6t158 11q-20 -72 -20 -125q-110 16 -369 16h-254q-127 0 -277 -16z" />
<glyph unicode="{" horiz-adv-x="602" d="M188 559q17 35 17 82l74 12q50 9 91.5 47t69 94t45 111.5t27.5 114.5l49 272q31 178 139 275.5t301 122.5l7 -66l-54 -12q-46 -11 -84 -42.5t-62.5 -71.5t-45 -97t-31.5 -104.5t-22 -108.5l-33 -176q-13 -67 -24 -108t-31 -87t-48 -77.5t-72.5 -64t-107.5 -61.5l-4 -28 q85 -49 122.5 -103t37.5 -125q0 -64 -35 -270t-35 -272q0 -198 119 -228l49 -12l-31 -65q-161 23 -235 96.5t-74 204.5q0 56 35 252.5t35 287.5q0 77 -29.5 130.5t-89.5 64.5z" />
<glyph unicode="|" d="M295 -530l381 2162h108l-381 -2162h-108z" />
<glyph unicode="}" horiz-adv-x="602" d="M-47 -424l53 12q57 13 100.5 55t71.5 107.5t44 125t30 136.5l33 176q13 68 23.5 110t30.5 87.5t48.5 77t72.5 63t107 60.5l4 28q-91 52 -125 109.5t-34 144.5q0 50 34.5 247.5t34.5 266.5q0 201 -119 230l-49 12l31 66q158 -22 233.5 -97.5t75.5 -210.5q0 -50 -34.5 -235 t-34.5 -285q0 -82 29.5 -140.5t88.5 -68.5l70 -12q-16 -31 -16 -82l-74 -12q-50 -9 -91.5 -47t-69 -94t-45 -111.5t-27.5 -114.5l-50 -272q-31 -178 -139 -275t-301 -122z" />
<glyph unicode="~" horiz-adv-x="2162" d="M408 530l26 33q157 213 383 213q65 0 148 -24t149.5 -52.5t146.5 -52.5t140 -24q107 0 250 116l96 -94q-186 -180 -387 -180q-66 0 -138.5 24.5t-126.5 53.5t-129.5 53.5t-148.5 24.5q-170 0 -295 -168z" />
<glyph unicode="&#xa9;" d="M31 1030q0 103 46 209.5t124 193t192 141t240 54.5q104 0 187 -35.5t134 -95.5t78 -133.5t27 -153.5q0 -78 -27 -161t-80.5 -160.5t-125 -139t-168.5 -98.5t-203 -37q-102 0 -185 36t-134 95.5t-78 132.5t-27 152zM109 1044q0 -66 22.5 -128t65 -113t113 -82t159.5 -31 q133 0 252 74.5t189.5 195t70.5 250.5q0 139 -104.5 240.5t-255.5 101.5q-105 0 -201 -43.5t-163.5 -114t-107.5 -162.5t-40 -188zM231 1055q0 96 46 181t137.5 140.5t208.5 55.5q126 0 188 -41q-4 -8 -11 -21.5t-14.5 -28.5t-9.5 -20h-12q-54 72 -156 72q-88 0 -155 -53.5 t-98 -127t-31 -147.5q0 -29 4 -55.5t16.5 -57t32.5 -52t55.5 -36t81.5 -14.5q51 0 93 13t104 57l4 -9q-12 -27 -19 -53q-87 -47 -202 -47q-129 0 -196 67.5t-67 176.5z" />
<glyph unicode="&#xab;" horiz-adv-x="802" d="M84 516q204 226 311 373q23 -68 92 -86q-54 -55 -132 -144.5t-119 -142.5q13 -32 70.5 -144t82.5 -155q-70 -17 -125 -72q-108 253 -180 371zM395 516q209 231 312 373q23 -68 92 -86q-55 -56 -133.5 -145.5t-118.5 -141.5q13 -32 70.5 -144t82.5 -155q-70 -17 -125 -72 q-108 253 -180 371z" />
<glyph unicode="&#xad;" horiz-adv-x="745" d="M45 483l21 115h679l-20 -115h-680z" />
<glyph unicode="&#xae;" d="M31 1024q0 80 26.5 164.5t79.5 163t124 140.5t168 99t204 37q84 0 155 -25t120 -66t84 -94t51 -109t16 -111q0 -113 -47 -223.5t-126 -195.5t-192.5 -137.5t-238.5 -52.5q-193 0 -308.5 117.5t-115.5 292.5zM109 1042q0 -91 40.5 -170t124 -130.5t195.5 -51.5 q109 0 206.5 47t163 121t104 164t38.5 178q0 61 -22.5 122t-64.5 113t-113.5 84.5t-159.5 32.5q-108 0 -205 -44.5t-163 -116t-105 -163.5t-39 -186zM297 834q21 89 61 305q37 226 43 284q66 -4 97 -4q13 0 53.5 2t56.5 2q71 0 110.5 -31t39.5 -79q0 -68 -59.5 -123 t-149.5 -62q24 -36 89.5 -143.5t96.5 -150.5q-28 4 -53 4q-27 0 -55 -4q-43 88 -170 286h-31q-26 -158 -45 -286q-20 4 -39 4q-25 0 -45 -4zM434 1161h27q82 0 142.5 35t60.5 100q0 84 -125 84q-32 0 -68 -4z" />
<glyph unicode="&#xbb;" horiz-adv-x="802" d="M-6 217q37 40 134 152t126 147q-51 120 -150 287q73 18 121 86q46 -126 181 -373q-125 -127 -312 -371q-36 55 -100 72zM305 217q37 40 134 152t126 147q-54 126 -149 287q73 18 121 86q48 -132 180 -373q-120 -123 -311 -371q-36 55 -101 72z" />
<glyph unicode="&#x401;" d="M104 -6q76 329 156 777.5t109 711.5q67 -6 301 -6h227q125 0 256 16q-27 -73 -27 -141q-169 16 -397 16q-120 0 -170 -4q-54 -220 -106 -539h155q202 0 375 19q-27 -63 -27 -144q-94 17 -522 17q-80 -415 -100 -608h198q123 0 381 16q-24 -87 -24 -131q-123 6 -359 6 h-151q-173 0 -275 -6zM483 1704q0 49 37.5 90t95.5 41q49 0 72 -21.5t23 -54.5q0 -57 -34 -101t-99 -44q-49 0 -72 26t-23 64zM872 1704q0 49 38 90t96 41q49 0 71.5 -21.5t22.5 -54.5q0 -57 -34 -101t-99 -44q-49 0 -72 26t-23 64z" />
<glyph unicode="&#x402;" horiz-adv-x="1589" d="M197 1352q20 64 26 141q267 -16 537 -16q304 0 581 16q-24 -75 -26 -141q-112 16 -434 16h-39q-27 -111 -113 -588q123 61 203 87t158 26q104 0 182.5 -29.5t124 -80t68 -111.5t22.5 -131q0 -79 -20 -158.5t-63 -154t-103 -132.5t-146.5 -92.5t-187.5 -34.5 q-104 0 -211 66q28 24 59.5 72t36.5 71q25 -70 53 -97.5t78 -27.5q74 0 136 45t100.5 115.5t59.5 151t21 157.5q0 256 -241 256q-148 0 -249.5 -57t-111.5 -121q-53 -298 -92 -606q-93 6 -100 6q-12 0 -117 -6q68 290 138 680t114 694h-39q-287 0 -405 -16z" />
<glyph unicode="&#x403;" horiz-adv-x="1067" d="M104 -6q74 323 156.5 784.5t108.5 704.5q126 -6 297 -6h204q35 0 142.5 5.5t163.5 10.5q-11 -27 -19 -71t-8 -70q-169 16 -424 16h-170q-47 -225 -124.5 -673t-108.5 -701q-93 6 -101 6q-12 0 -117 -6zM739 1561q48 74 120.5 207.5t125.5 244.5q66 -14 111 -14 q17 0 106 14l2 -37q-215 -205 -393 -415h-72z" />
<glyph unicode="&#x404;" horiz-adv-x="1443" d="M115 551q0 211 76 391.5t205.5 303t305 192t371.5 69.5q290 0 467 -100l-82 -172h-33q-90 99 -183.5 137.5t-197.5 38.5q-123 0 -232.5 -44.5t-193 -122.5t-145 -181.5t-96.5 -224.5h315q233 0 545 16q-22 -75 -25 -141q-278 16 -540 16h-322q-12 -77 -12 -156 q0 -81 16.5 -154t53.5 -138t91 -112.5t133.5 -75t176.5 -27.5q77 0 214.5 44t264.5 132l12 -23l-43 -129l-63 -31q-194 -90 -436 -90q-298 0 -470.5 155.5t-172.5 426.5z" />
<glyph unicode="&#x405;" d="M25 100q48 93 63 156l27 4q113 -194 301 -194q73 0 139.5 32t112 82.5t72 113.5t26.5 124q0 160 -170 233l-170 74q-205 88 -205 299q0 206 148.5 344.5t375.5 138.5q195 0 312 -104q-37 -61 -82 -154l-27 -4q-62 166 -243 166q-135 0 -220.5 -87.5t-85.5 -213.5 q0 -82 43 -133.5t142 -91.5l178 -74q71 -29 115.5 -82.5t58.5 -102.5t14 -102q0 -108 -40 -206.5t-113.5 -177t-189.5 -125t-257 -46.5q-98 0 -177 26t-148 105z" />
<glyph unicode="&#x406;" horiz-adv-x="610" d="M104 -6q77 350 155.5 787t107.5 702q111 -6 116 -6q2 0 101 6q-66 -264 -142 -704t-120 -785q-99 6 -101 6q-18 0 -117 -6z" />
<glyph unicode="&#x407;" horiz-adv-x="610" d="M104 -6q77 350 155.5 787t107.5 702q111 -6 116 -6q2 0 101 6q-66 -264 -142 -704t-120 -785q-99 6 -101 6q-18 0 -117 -6zM254 1696q0 49 37.5 90t95.5 41q49 0 71.5 -21.5t22.5 -54.5q0 -57 -34 -101t-99 -44q-49 0 -71.5 26t-22.5 64zM571 1696q0 49 38 90t96 41 q49 0 71.5 -21.5t22.5 -54.5q0 -57 -34 -101t-99 -44q-49 0 -72 26t-23 64z" />
<glyph unicode="&#x408;" horiz-adv-x="608" d="M-193 -315q6 45 3 77q51 6 90.5 16.5t72.5 34.5t56 46t44.5 70t35.5 85.5t31 114t28.5 134.5t30.5 167l92 528q71 394 74 525q111 -6 116 -6q2 0 101 6q-46 -182 -107 -522l-94 -535q-5 -29 -19 -126.5t-18 -121.5q-83 -470 -537 -493z" />
<glyph unicode="&#x409;" horiz-adv-x="1892" d="M-61 -6q67 90 426 696.5t452 786.5h123l88 -662q94 25 223 25q56 0 104.5 -2.5t108.5 -11.5t108 -24t96 -41.5t80.5 -62.5t52.5 -88.5t20 -117.5q0 -226 -183.5 -362t-484.5 -136q-151 0 -242 6l-147 1171q-191 -336 -662 -1177q-34 6 -75 6q-47 0 -88 -6zM1042 692 l84 -583q225 0 354.5 108t129.5 270q0 132 -91.5 188t-269.5 56q-128 0 -207 -39z" />
<glyph unicode="&#x40a;" horiz-adv-x="2234" d="M104 -6q77 350 155.5 787t107.5 702q111 -6 116 -6q2 0 101 6q-36 -116 -127 -625q301 -14 477 -14q114 0 346 16q86 509 92 623q111 -6 117 -6q1 0 100 6q-10 -32 -23 -88t-29 -139t-26.5 -138.5t-28.5 -154t-22 -119.5h107q55 0 106 -3t112.5 -13t113.5 -25.5t102 -42 t84.5 -62t56 -87t21.5 -113.5q0 -226 -184.5 -365t-483.5 -139q-23 0 -94 3t-94 3q-121 0 -197 -6q63 277 143 725q-227 16 -348 16q-184 0 -473 -16q-73 -420 -110 -725q-99 6 -101 6q-18 0 -117 -6zM1341 113q98 -4 164 -4q193 0 320 106.5t127 278.5q0 241 -408 241 q-59 0 -104 -10q-33 -183 -99 -612z" />
<glyph unicode="&#x40b;" horiz-adv-x="1589" d="M197 1352q20 64 26 141q267 -16 537 -16q304 0 581 16q-24 -75 -26 -141q-112 16 -434 16h-39q-27 -111 -113 -588q125 62 204.5 88.5t156.5 26.5q89 0 158.5 -21.5t112 -56.5t70 -83t38 -96t10.5 -101q0 -23 -14.5 -120t-34 -225t-27.5 -198q-93 6 -100 6q-12 0 -117 -6 q92 382 92 545q0 123 -53.5 182t-165.5 59q-127 0 -236.5 -52t-124.5 -128q-41 -206 -92 -606q-93 6 -100 6q-12 0 -117 -6q68 290 138 680t114 694h-39q-287 0 -405 -16z" />
<glyph unicode="&#x40c;" horiz-adv-x="1320" d="M104 -6q77 350 155.5 787t107.5 702q111 -6 116 -6q2 0 101 6q-39 -126 -138 -682q132 87 373.5 298.5t421.5 383.5q105 -6 109 -6q19 0 106 6q-483 -382 -813 -668q105 -160 281.5 -413.5t289.5 -407.5q-64 6 -131 6q-87 0 -139 -6q-151 274 -506 751 q-76 -422 -116 -751q-99 6 -101 6q-18 0 -117 -6zM831 1561q48 74 120.5 207.5t125.5 244.5q66 -14 111 -14q17 0 106 14l2 -37q-215 -205 -393 -415h-72z" />
<glyph unicode="&#x40e;" horiz-adv-x="1441" d="M197 1483q53 -6 122 -6t127 6q19 -68 80 -234t154 -409t127 -336q104 153 311.5 497t286.5 482q35 -6 78 -6q51 0 100 6q-167 -239 -495 -744.5t-527 -822.5q-48 6 -65 6q-11 0 -80 -6q150 204 264 391q-28 71 -115.5 292t-148 374t-127 309t-92.5 201zM606 1726 q41 72 62 193h12q32 -118 93 -166.5t198 -48.5q133 0 222.5 51.5t162.5 163.5h12q-8 -44 -8 -100q0 -51 6 -88q-198 -115 -408 -115q-113 0 -191 26.5t-161 83.5z" />
<glyph unicode="&#x40f;" horiz-adv-x="1675" d="M104 -6q78 347 156.5 785t106.5 704q111 -6 116 -6q2 0 101 6q-49 -189 -132.5 -665.5t-109.5 -680.5q265 -18 455 -18q97 0 405 18q70 341 141 740t89 606q111 -6 116 -6q2 0 101 6q-65 -274 -143 -717.5t-120 -771.5q-129 6 -385 6q-121 0 -184 -74.5t-96 -263.5h-66 q33 189 -3.5 263.5t-157.5 74.5q-282 0 -390 -6z" />
<glyph unicode="&#x410;" horiz-adv-x="1441" d="M-61 -4q57 75 163.5 237t230.5 360.5t228.5 368t204.5 333.5t111 182h51q46 -207 185.5 -749t205.5 -732q-62 4 -113 4t-121 -4q-8 35 -59 262.5t-70 294.5q-115 18 -280 18q-145 0 -258 -18q-83 -123 -316 -557q-40 4 -75 4q-42 0 -88 -4zM506 694q114 -14 205 -14 q85 0 204 14q-28 140 -116 477z" />
<glyph unicode="&#x411;" horiz-adv-x="1320" d="M104 -6q77 350 155.5 787t107.5 702q49 -2 143.5 -7t161.5 -8.5t88 -3.5q162 0 483 19q-9 -27 -18 -74q-1 -6 -2 -18t-2 -28t-2 -24q-82 11 -202 20t-171 9q-163 0 -301 -12l-90 -514h104q52 0 100.5 -3t110 -12t113.5 -24t104 -41.5t87.5 -61.5t58 -87t22.5 -115 q0 -99 -36.5 -182t-99.5 -141.5t-148 -100t-182 -61t-202 -19.5q-12 0 -112 3t-150 3q-71 0 -121 -6zM326 113q106 -4 174 -4q92 0 172 24.5t141.5 72t97 122.5t35.5 170q0 84 -46 134t-158.5 75.5t-305.5 25.5z" />
<glyph unicode="&#x412;" horiz-adv-x="1327" d="M104 -6q67 298 153.5 773t109.5 716q153 -6 208 -6q30 0 102.5 3t88.5 3q92 0 161.5 -7t129.5 -25t98.5 -47.5t60 -75t21.5 -107.5q0 -58 -20 -114.5t-64 -113.5t-124 -107t-189 -83q317 -69 317 -291q0 -230 -183.5 -374t-484.5 -144q-41 0 -136.5 3t-123.5 3 q-38 0 -125 -6zM326 113q90 -4 174 -4q83 0 158.5 21.5t141 65.5t105 122t39.5 180q0 40 -8 70.5t-35.5 63t-75 53.5t-131.5 34.5t-200 13.5h-58zM455 846q46 -4 108 -4q211 0 333 93.5t122 231.5q0 101 -78 151t-221 50q-86 0 -172 -4z" />
<glyph unicode="&#x413;" horiz-adv-x="1067" d="M104 -6q74 323 156.5 784.5t108.5 704.5q126 -6 297 -6h204q35 0 142.5 5.5t163.5 10.5q-11 -27 -19 -71t-8 -70q-169 16 -424 16h-170q-47 -225 -124.5 -673t-108.5 -701q-93 6 -101 6q-12 0 -117 -6z" />
<glyph unicode="&#x414;" horiz-adv-x="1703" d="M-41 -334l39 469l178 -22q265 388 856 1364h51q74 -305 188.5 -744.5t164.5 -613.5l168 14l-125 -467h-64q14 81 16.5 140t-6 96t-28.5 59t-46 30.5t-63 8.5h-1018q-67 0 -111 -26.5t-78.5 -100.5t-57.5 -207h-64zM326 115q159 -6 172 -6h618q58 0 98 6 q-139 624 -260 1061q-536 -895 -628 -1061z" />
<glyph unicode="&#x415;" d="M104 -6q76 329 156 777.5t109 711.5q67 -6 301 -6h227q125 0 256 16q-27 -73 -27 -141q-169 16 -397 16q-120 0 -170 -4q-54 -220 -106 -539h155q202 0 375 19q-27 -63 -27 -144q-94 17 -522 17q-80 -415 -100 -608h198q123 0 381 16q-24 -87 -24 -131q-123 6 -359 6 h-151q-173 0 -275 -6z" />
<glyph unicode="&#x416;" horiz-adv-x="2027" d="M-82 -6l864 821q-114 144 -285 340.5t-294 327.5q47 -6 110 -6q16 0 103 6q81 -119 263.5 -353.5t291.5 -328.5q97 542 104 682q111 -6 117 -6q1 0 100 6q-37 -118 -137 -682q100 66 289 227t312.5 274t195.5 181q87 -6 102 -6q64 0 111 6q-175 -135 -413.5 -330 t-399.5 -338l573 -821q-61 6 -125 6q-98 0 -147 -6q-75 141 -249 399t-257 350q-70 -385 -117 -749q-99 6 -100 6q-18 0 -117 -6q55 230 150 749q-116 -92 -381.5 -349.5t-391.5 -399.5q-50 6 -143 6q-67 0 -129 -6z" />
<glyph unicode="&#x417;" horiz-adv-x="1175" d="M-20 125q42 78 63 156l29 4q67 -116 151 -167.5t199 -51.5q81 0 150.5 25.5t117.5 67.5t82 96t50 111t16 113q0 107 -78.5 175.5t-237.5 68.5q-64 0 -178 -14q21 68 21 133q14 -3 79.5 -10t100.5 -7q88 0 173.5 48.5t140 130.5t54.5 172q0 104 -77.5 169.5t-192.5 65.5 q-116 0 -197.5 -44.5t-156.5 -147.5l-31 6q-8 95 -22 149q80 67 191 100t232 33q134 0 233 -29.5t158.5 -95.5t59.5 -163q0 -342 -399 -435q99 -15 168.5 -48t104 -76.5t49 -85.5t14.5 -89q0 -114 -55.5 -212.5t-146 -164t-206.5 -102.5t-238 -37q-277 0 -421 156z" />
<glyph unicode="&#x418;" horiz-adv-x="1740" d="M104 -6q77 350 155.5 787t107.5 702q111 -6 116 -6q2 0 101 6q-39 -125 -219 -1153q316 269 683 601t570 552q18 -6 43 -6q26 0 53 6q-66 -264 -142 -704t-120 -785q-99 6 -100 6q-18 0 -117 -6q73 321 217 1132q-257 -203 -626 -537.5t-636 -594.5q-15 6 -43 6t-43 -6z " />
<glyph unicode="&#x419;" horiz-adv-x="1740" d="M104 -6q77 350 155.5 787t107.5 702q111 -6 116 -6q2 0 101 6q-39 -125 -219 -1153q316 269 683 601t570 552q18 -6 43 -6q26 0 53 6q-66 -264 -142 -704t-120 -785q-99 6 -100 6q-18 0 -117 -6q73 321 217 1132q-257 -203 -626 -537.5t-636 -594.5q-15 6 -43 6t-43 -6z M750 1726q40 70 61 193h12q32 -118 93 -166.5t198 -48.5q133 0 222.5 51.5t162.5 163.5h12q-8 -44 -8 -100q0 -51 6 -88q-198 -115 -407 -115q-113 0 -191 26.5t-161 83.5z" />
<glyph unicode="&#x41a;" horiz-adv-x="1320" d="M104 -6q77 350 155.5 787t107.5 702q111 -6 116 -6q2 0 101 6q-39 -126 -138 -682q132 87 373.5 298.5t421.5 383.5q105 -6 109 -6q19 0 106 6q-483 -382 -813 -668q105 -160 281.5 -413.5t289.5 -407.5q-64 6 -131 6q-87 0 -139 -6q-151 274 -506 751 q-76 -422 -116 -751q-99 6 -101 6q-18 0 -117 -6z" />
<glyph unicode="&#x41b;" horiz-adv-x="1441" d="M-61 -4q57 75 163.5 237t230.5 360.5t228.5 368t204.5 333.5t111 182h51q46 -207 185.5 -749t205.5 -732q-62 4 -113 4t-121 -4q-46 218 -133.5 579t-152.5 596q-135 -211 -346 -561t-351 -614q-40 4 -75 4q-42 0 -88 -4z" />
<glyph unicode="&#x41c;" horiz-adv-x="1923" d="M-6 -6q71 192 229 689.5t246 793.5h41q52 -176 207 -612t215 -560q332 466 842 1172h38q-27 -356 -53.5 -825t-29.5 -658q-47 6 -99 6q-57 0 -110 -6q12 122 40.5 508t38.5 579q-78 -99 -318.5 -447t-430.5 -634h-39q-183 589 -358 1063q-60 -181 -163 -545t-132 -524 q-35 6 -76 6q-50 0 -88 -6z" />
<glyph unicode="&#x41d;" horiz-adv-x="1677" d="M104 -6q77 350 155.5 787t107.5 702q111 -6 116 -6q2 0 101 6q-36 -116 -127 -625q301 -14 477 -14q175 0 407 16q87 518 93 623q111 -6 116 -6q2 0 101 6q-66 -264 -142 -704t-120 -785q-99 6 -101 6q-18 0 -117 -6q68 298 144 725q-227 16 -410 16q-184 0 -473 -16 q-73 -420 -110 -725q-99 6 -101 6q-18 0 -117 -6z" />
<glyph unicode="&#x41e;" horiz-adv-x="1796" d="M115 569q0 158 49.5 303.5t139 260t208 199t263 130t298.5 45.5q168 0 300.5 -47t216.5 -129.5t127.5 -191t43.5 -234.5q0 -109 -30.5 -220.5t-87.5 -216t-143.5 -195.5t-191.5 -158.5t-239.5 -106.5t-280.5 -39q-165 0 -295.5 47.5t-212 130t-123.5 190t-42 232.5z M336 565q0 -66 11.5 -129.5t44.5 -132.5t84.5 -120t138 -84t198.5 -33q162 0 300 71t230.5 190t144.5 275t52 326q0 76 -13 142.5t-47 130.5t-86.5 109.5t-137.5 73t-195 27.5q-152 0 -277.5 -56t-206.5 -144.5t-137 -202t-80 -225t-24 -218.5z" />
<glyph unicode="&#x41f;" horiz-adv-x="1714" d="M104 -6q77 350 155.5 787t107.5 702q250 -19 667 -19q378 0 654 19q-66 -265 -142.5 -705.5t-120.5 -783.5q-99 6 -100 6q-18 0 -117 -6q59 260 136.5 688.5t109.5 656.5q-243 17 -440 17q-237 0 -463 -17q-47 -198 -121 -632.5t-108 -712.5q-99 6 -101 6q-18 0 -117 -6z " />
<glyph unicode="&#x420;" horiz-adv-x="1239" d="M104 -6q77 350 155.5 787t107.5 702q204 -6 206 -6q38 0 116 3t102 3q138 0 232.5 -20t145 -59.5t71 -88.5t20.5 -117q0 -130 -51 -231t-144.5 -165.5t-221 -98t-284.5 -33.5q-55 0 -133 8q-40 -206 -69.5 -403.5t-34.5 -280.5q-52 6 -103 6q-65 0 -115 -6zM444 786 q50 -8 86 -8q233 0 376 107.5t143 277.5q0 108 -82 156.5t-238 48.5q-139 0 -182 -6z" />
<glyph unicode="&#x421;" horiz-adv-x="1443" d="M115 561q0 192 70 364.5t194 301.5t304.5 204.5t389.5 75.5q293 0 467 -100l-82 -172h-33q-163 176 -381 176q-116 0 -219 -38t-179 -102.5t-136 -148.5t-97.5 -178.5t-57 -188.5t-19.5 -182q0 -62 10.5 -123.5t42 -133t81 -125t137.5 -89.5t202 -36q247 0 479 176 l12 -23l-43 -129q-131 -67 -250 -94t-249 -27q-164 0 -290.5 48t-202 131.5t-113 187.5t-37.5 225z" />
<glyph unicode="&#x422;" horiz-adv-x="1183" d="M197 1352q20 53 26 141q267 -16 537 -16q268 0 545 16q-22 -71 -27 -141q-112 16 -397 16h-39q-148 -710 -236 -1374q-93 6 -100 6q-12 0 -117 -6q143 626 252 1374h-39q-287 0 -405 -16z" />
<glyph unicode="&#x423;" horiz-adv-x="1441" d="M197 1483q53 -6 122 -6t127 6q18 -68 79.5 -234t154 -408.5t127.5 -336.5q104 153 311.5 497t286.5 482q35 -6 78 -6q51 0 100 6q-171 -245 -506 -760t-516 -807q-48 6 -65 6q-11 0 -80 -6q150 204 264 391q-27 68 -90 227.5t-115 290.5t-110.5 275.5t-102.5 245.5 t-65 137z" />
<glyph unicode="&#x424;" horiz-adv-x="1949" d="M127 655q0 128 44 243t126 204.5t193 155.5t249 100.5t291 34.5l19 168q10 -1 54 -4t60 -3q8 0 26 1.5t41.5 3t35.5 2.5l-39 -168q309 0 496.5 -140t187.5 -362q0 -157 -73 -299.5t-195 -245t-289.5 -163t-349.5 -60.5l-25 -186q-99 6 -100 6q-18 0 -117 -6l41 186 q-151 0 -279.5 43.5t-214.5 116.5t-134 169.5t-48 202.5zM348 664q0 -64 17.5 -128t55 -124.5t91.5 -106.5t133.5 -74t173.5 -28q108 547 199 1110q-180 0 -332.5 -81t-245 -231t-92.5 -337zM1016 203q119 0 227 41t187.5 110t139 157t89.5 185t31 191q1 81 -28 155 t-85.5 135.5t-151.5 98.5t-215 37q-118 -611 -194 -1110z" />
<glyph unicode="&#x425;" horiz-adv-x="1320" d="M-25 -6q84 93 340 397t293 357q-40 102 -171.5 395t-162.5 340q83 -6 138 -6q64 0 108 6q36 -106 108.5 -288t119.5 -288q119 140 266 327t188 249q43 -6 94 -6q46 0 80 6q-76 -79 -253.5 -283t-327.5 -385q39 -107 163.5 -392.5t196.5 -428.5q-67 6 -133 6q-6 0 -123 -6 q-54 185 -244 657q-288 -353 -505 -657q-38 6 -78 6q-56 0 -97 -6z" />
<glyph unicode="&#x426;" horiz-adv-x="1675" d="M104 -6q78 347 156.5 785t106.5 704q111 -6 116 -6q2 0 101 6q-49 -189 -132.5 -665.5t-109.5 -680.5q265 -18 455 -18q97 0 405 18q70 341 141 740t89 606q111 -6 116 -6q2 0 101 6q-57 -235 -132.5 -658.5t-113.5 -709.5l166 14l-127 -467h-62q8 49 13 87.5t5 71 t-2.5 56.5t-12.5 43t-20.5 31.5t-31.5 22t-40.5 14.5t-53 8t-63 3.5t-76.5 0.5h-604q-282 0 -390 -6z" />
<glyph unicode="&#x427;" horiz-adv-x="1470" d="M248 938q0 53 33.5 260.5t37.5 284.5q111 -6 117 -6q2 0 101 6q-30 -99 -61.5 -276.5t-31.5 -262.5q0 -272 291 -272q124 0 233.5 35t159.5 118q93 552 99 658q111 -6 116 -6q2 0 101 6q-66 -264 -142 -704t-120 -785q-99 6 -101 6q-17 0 -116 -6q68 300 135 678 q-118 -58 -211.5 -86.5t-188.5 -28.5q-106 0 -188 23.5t-131 60.5t-80 89t-42 102t-11 106z" />
<glyph unicode="&#x428;" horiz-adv-x="2379" d="M104 -6q77 350 155.5 787t107.5 702q111 -6 116 -6q2 0 101 6q-53 -199 -130.5 -644t-111.5 -700q181 -20 391 -20h285q67 325 137 727.5t96 636.5q111 -6 117 -6q1 0 100 6q-58 -232 -129 -635.5t-116 -728.5h262q279 0 422 20q63 302 134 708t95 636q111 -6 117 -6 q1 0 100 6q-66 -264 -142 -704t-120 -785q-77 6 -305 6q-37 0 -301 -3t-375 -3q-90 0 -368.5 3t-417.5 3q-152 0 -220 -6z" />
<glyph unicode="&#x429;" horiz-adv-x="2379" d="M104 -6q78 347 156.5 785t106.5 704q111 -6 116 -6q2 0 101 6q-52 -208 -132.5 -662.5t-109.5 -681.5q184 -20 391 -20h285q72 351 141.5 743t91.5 621q111 -6 117 -6q1 0 100 6q-57 -238 -129.5 -648t-115.5 -716h262q282 0 422 20q71 348 139.5 736t89.5 608 q111 -6 117 -6q1 0 100 6q-57 -235 -132.5 -658.5t-113.5 -709.5l166 14l-127 -467h-61q11 62 15.5 107t1.5 81.5t-9.5 60t-26 41t-39.5 26.5t-58 14.5t-73 6.5t-94 1q-37 0 -309 -3t-383 -3q-90 0 -368.5 3t-417.5 3q-150 0 -220 -6z" />
<glyph unicode="&#x42a;" horiz-adv-x="1427" d="M190 1341q25 85 25 142q312 -15 354 -15q15 0 98 5.5t115 9.5q-40 -128 -129 -641q58 8 109 8q63 0 109 -1.5t112 -9t113.5 -20.5t99.5 -38.5t84.5 -60.5t54 -88.5t21.5 -121.5q0 -232 -184.5 -374t-483.5 -142q-22 0 -94 3t-94 3q-120 0 -197 -6q66 297 136 682t112 680 q-8 0 -94.5 -2.5t-162.5 -5.5t-104 -7zM535 113q98 -4 163 -4q213 0 330 112t117 297q0 123 -96.5 173t-311.5 50q-58 0 -104 -16q-26 -143 -98 -612z" />
<glyph unicode="&#x42b;" horiz-adv-x="1830" d="M104 -6q77 350 155.5 787t107.5 702q111 -6 116 -6q2 0 101 6q-40 -128 -129 -641q58 8 108 8q47 0 81.5 -1t86 -4.5t89.5 -10t85 -18.5t81 -29.5t68 -43.5t55 -58.5t34.5 -77.5t13.5 -99q0 -99 -45 -191t-127 -164t-211 -115.5t-285 -43.5q-23 0 -94 3t-94 3 q-121 0 -197 -6zM336 113q98 -4 164 -4q201 0 323.5 113.5t122.5 283.5q0 131 -97 183t-310 52q-59 0 -105 -16q-26 -143 -98 -612zM1325 -6q76 347 154.5 785t107.5 704q111 -6 117 -6q1 0 100 6q-66 -264 -142 -704t-120 -785q-99 6 -100 6q-18 0 -117 -6z" />
<glyph unicode="&#x42c;" horiz-adv-x="1228" d="M104 -6q77 350 155.5 787t107.5 702q111 -6 116 -6q2 0 101 6q-40 -128 -129 -641q58 8 108 8q47 0 81.5 -1t86 -4.5t89.5 -10t85 -18.5t81 -29.5t68 -43.5t55 -58.5t34.5 -77.5t13.5 -99q0 -99 -45 -191t-127 -164t-211 -115.5t-285 -43.5q-23 0 -94 3t-94 3 q-121 0 -197 -6zM336 113q98 -4 164 -4q201 0 323.5 113.5t122.5 283.5q0 131 -97 183t-310 52q-59 0 -105 -16q-26 -143 -98 -612z" />
<glyph unicode="&#x42d;" horiz-adv-x="1441" d="M49 113q32 73 53 180q58 -109 177 -168t225 -59q136 0 251.5 55.5t195.5 150t132.5 210.5t75.5 247h-368q-210 0 -445 -16q23 75 25 141q316 -16 567 -16h244q4 54 4 102q0 471 -422 471q-282 0 -449 -174h-32q-2 62 -19 172q122 59 238.5 78.5t259.5 19.5 q147 0 263.5 -35t203 -106t132.5 -186t46 -267q0 -191 -69 -362.5t-191.5 -300.5t-304.5 -205t-396 -76q-95 0 -220.5 41t-176.5 103z" />
<glyph unicode="&#x42e;" horiz-adv-x="2318" d="M104 -6q77 350 155.5 787t107.5 702q111 -6 116 -6q2 0 101 6q-38 -121 -127 -627q74 -4 118 -4q49 0 111 4q11 42 32.5 93t61.5 114.5t91.5 124.5t126 119.5t160 102t199 70.5t238.5 27q168 0 301 -45.5t217 -125.5t127.5 -185.5t43.5 -230.5q0 -164 -52.5 -313 t-145.5 -263.5t-215 -200t-266.5 -130t-293.5 -44.5q-135 0 -247.5 33.5t-189.5 91t-130.5 133.5t-78 160.5t-24.5 173.5q0 115 16 184q-87 5 -112 5q-34 0 -107 -5q-76 -422 -116 -751q-99 6 -101 6q-18 0 -117 -6zM844 594q0 -76 14 -146.5t49.5 -141.5t89.5 -123 t141 -84.5t197 -32.5q141 0 262 51.5t204.5 137.5t143 197.5t87.5 231.5t28 240q0 72 -13.5 138t-47.5 131t-86 112.5t-136.5 76.5t-191.5 29q-129 0 -241.5 -40.5t-191 -108t-139.5 -152t-97 -177.5t-54 -178.5t-18 -160.5z" />
<glyph unicode="&#x42f;" horiz-adv-x="1327" d="M-72 -6q129 121 348.5 336.5t372.5 371.5q-89 8 -156 38t-105.5 74.5t-57.5 95.5t-19 108q0 81 33 160.5t96 149t169 112.5t237 43q30 0 114.5 -3t106.5 -3q145 0 233 6q-66 -264 -142 -704t-120 -785q-99 6 -100 6q-18 0 -117 -6q74 327 142 708h-80 q-127 -112 -325.5 -322t-352.5 -386q-65 6 -131 6q-91 0 -146 -6zM512 1087q0 -89 48.5 -153.5t126.5 -95.5t175 -31q63 0 121 8q77 451 86 543q-128 26 -213 26q-150 0 -247 -87t-97 -210z" />
<glyph unicode="&#x430;" horiz-adv-x="1046" d="M25 186q0 140 99.5 233.5t285.5 127.5l229 41q33 6 55.5 17.5t35 25.5t19 38.5t8 45.5t1.5 57q0 98 -53.5 138t-157.5 40q-97 0 -170 -36.5t-137 -131.5h-25l23 127q70 70 173 106t203 36q145 0 226.5 -67t81.5 -204q0 -39 -51.5 -337t-51.5 -324q0 -38 11.5 -53 t37.5 -15t50 8l4 -49q-85 -39 -160 -39q-56 0 -86 29t-31 106q-192 -135 -354 -135q-133 0 -199.5 59.5t-66.5 155.5zM227 221q0 -131 170 -131q136 0 269 117l55 315l-139 -20q-179 -27 -267 -94t-88 -187z" />
<glyph unicode="&#x431;" horiz-adv-x="1206" d="M133 391q0 129 39.5 316.5t95.5 289.5q52 97 128.5 187.5t171.5 167.5t212.5 125.5t237.5 54.5q73 3 129.5 30.5t62.5 67.5h64l-74 -129q-52 -92 -119 -127t-172 -49q-116 -16 -202.5 -44.5t-143 -65.5t-94 -90.5t-57.5 -109.5t-33 -132l-10 -60q62 97 176 162.5 t223 65.5q171 0 272 -101.5t101 -287.5q0 -102 -27.5 -202t-81 -188t-126.5 -155.5t-171 -106.5t-207 -39q-209 0 -302 100.5t-93 319.5zM317 367q0 -62 12 -114.5t37 -96t70.5 -68.5t106.5 -25q96 0 174.5 55t127.5 144t75 196t26 216q0 284 -239 284q-78 0 -144 -39.5 t-110.5 -102.5t-76 -142t-45.5 -157.5t-14 -149.5z" />
<glyph unicode="&#x432;" horiz-adv-x="1071" d="M47 -6q54 190 105.5 493.5t78.5 542.5q58 -6 134 -6q37 0 132 3t121 3q188 0 277.5 -59t89.5 -164q0 -54 -28 -103t-71.5 -81t-91.5 -52.5t-92 -25.5l-2 -13q42 -6 70 -11.5t64 -19.5t57.5 -33t37 -52t15.5 -76q0 -87 -45.5 -156t-120 -109t-160 -60.5t-174.5 -20.5 q-37 0 -120 3t-103 3q-100 0 -174 -6zM258 94q87 -20 186 -20q123 0 216.5 71t93.5 181q0 163 -254 163q-140 0 -185 -10q-52 -346 -57 -385zM334 580q160 -11 180 -11q123 0 200 63.5t77 160.5q0 62 -52.5 109.5t-152.5 47.5q-88 0 -180 -18q-37 -143 -72 -352z" />
<glyph unicode="&#x433;" horiz-adv-x="880" d="M47 -6q51 184 102.5 481t81.5 555q98 -20 283 -20q181 0 406 18q-20 -66 -23 -131q-246 14 -496 14q-115 -535 -153 -917q-44 6 -92 6q-60 0 -109 -6z" />
<glyph unicode="&#x434;" horiz-adv-x="1273" d="M-72 -291l43 416l133 -19q256 391 582 949q35 -6 68 -6q40 0 77 6q37 -159 117.5 -479t122.5 -459l113 8l-105 -416h-71q34 109 34 189q0 102 -88 102h-766q-35 0 -56 -4.5t-43.5 -20.5t-36.5 -47.5t-26.5 -85t-21.5 -133.5h-76zM258 106q225 -10 291 -10q94 0 315 17 q-55 349 -178 761q-271 -450 -428 -768z" />
<glyph unicode="&#x435;" d="M66 377q0 95 22.5 189.5t71.5 182t118.5 154.5t171 107.5t220.5 40.5q183 0 273.5 -87.5t90.5 -265.5q0 -77 -30 -204q-156 16 -254 16h-478q-14 -80 -14 -158q0 -148 73.5 -224.5t217.5 -76.5q101 0 186.5 40.5t173.5 121.5l17 -20l-43 -103q-190 -119 -394 -119 q-199 0 -311 109t-112 297zM289 602h540q17 102 17 131q0 102 -53.5 170t-147.5 68q-128 0 -220.5 -102t-135.5 -267z" />
<glyph unicode="&#x436;" horiz-adv-x="1658" d="M-70 -6q127 114 355 327t286 271l-411 438q87 -6 98 -6q9 0 102 6q13 -32 88 -139.5t161.5 -209t117.5 -101.5h33q50 308 61 450q99 -6 103 -6q10 0 26.5 1t38.5 2.5t33 2.5q-29 -98 -58.5 -242.5t-39.5 -207.5h32q31 0 154 101.5t236 209t137 139.5q81 -6 98 -6 q3 0 102 6l-567 -438q41 -61 193 -274t235 -324q-80 6 -121 6q-69 0 -137 -6q-36 81 -141.5 242.5t-198.5 287.5h-33q-67 -423 -75 -530q-44 6 -93 6q-59 0 -108 -6q53 184 113 530h-33q-130 -119 -295.5 -283t-233.5 -247q-61 6 -133 6q-39 0 -125 -6z" />
<glyph unicode="&#x437;" horiz-adv-x="987" d="M-2 88q41 44 90 150q33 -74 106.5 -130.5t165.5 -56.5q73 0 144 32.5t121.5 99.5t50.5 151q0 81 -66.5 124.5t-173.5 43.5q-54 0 -131 -15q23 55 23 129q74 -16 129 -16q125 0 188.5 65t63.5 162q0 73 -45.5 108.5t-124.5 35.5q-72 0 -145.5 -28.5t-170.5 -104.5 q-5 41 -37 102q203 111 379 111q52 0 108 -11t111 -33t90 -63.5t35 -95.5q0 -105 -63.5 -180.5t-179.5 -96.5l-2 -14q110 -24 162.5 -71.5t52.5 -129.5q0 -67 -26.5 -125t-72 -99t-102.5 -73t-120.5 -50.5t-123.5 -28t-115 -9.5q-89 0 -183 32.5t-138 84.5z" />
<glyph unicode="&#x438;" horiz-adv-x="1214" d="M47 -6q117 435 184 1036q99 -6 103 -6q10 0 26.5 1t38.5 2.5t33 2.5q-31 -109 -63.5 -271t-47.5 -251t-42 -260q112 112 388 399.5t361 382.5q30 -6 59 -6q5 0 80 6q-108 -375 -184 -1036q-43 6 -92 6q-59 0 -109 -6q16 59 30.5 121t25.5 110.5t23.5 113t19 99.5 t17.5 102t14.5 88t14 89t11.5 76q-115 -99 -380 -377t-386 -422q-24 6 -57 6q-14 0 -68 -6z" />
<glyph unicode="&#x439;" horiz-adv-x="1214" d="M47 -6q117 435 184 1036q99 -6 103 -6q10 0 26.5 1t38.5 2.5t33 2.5q-31 -109 -63.5 -271t-47.5 -251t-42 -260q112 112 388 399.5t361 382.5q30 -6 59 -6q5 0 80 6q-108 -375 -184 -1036q-43 6 -92 6q-59 0 -109 -6q16 59 30.5 121t25.5 110.5t23.5 113t19 99.5 t17.5 102t14.5 88t14 89t11.5 76q-115 -99 -380 -377t-386 -422q-24 6 -57 6q-14 0 -68 -6zM465 1262q34 78 51 149l4 4q32 -76 96 -114.5t140 -38.5q182 0 299 153l8 -4q-8 -44 -8 -94q0 -27 4 -55q-161 -76 -318 -76q-59 0 -138 20t-138 56z" />
<glyph unicode="&#x43a;" horiz-adv-x="1069" d="M47 -6q52 174 107.5 499t76.5 537q99 -6 103 -6q10 0 26.5 1t38.5 2.5t33 2.5q-29 -98 -58.5 -242.5t-39.5 -207.5h33q45 0 263 195.5t263 254.5q81 -6 98 -6q4 0 103 6l-568 -438q41 -61 193 -274t235 -324q-80 6 -120 6q-70 0 -138 -6q-36 81 -141.5 242.5 t-198.5 287.5h-32q-1 -4 -15 -89.5t-23.5 -149t-21.5 -150.5t-16 -141q-44 6 -92 6q-60 0 -109 -6z" />
<glyph unicode="&#x43b;" d="M-68 -6q124 164 310 470.5t327 565.5q24 -6 60 -6q37 0 71 6q41 -203 131.5 -579.5t133.5 -456.5q-81 6 -117 6q-20 0 -107 -6q-74 469 -184 817q-122 -196 -257.5 -437.5t-190.5 -379.5q-43 6 -91 6q-36 0 -86 -6z" />
<glyph unicode="&#x43c;" horiz-adv-x="1392" d="M-35 -6q68 168 176 545t129 491q36 -6 54 -6q27 0 51 6q22 -113 124 -399.5t160 -413.5q133 189 323.5 475.5t215.5 337.5q24 -6 55 -6q27 0 54 6q-15 -174 -37.5 -530t-26.5 -506q-99 6 -102 6q-72 0 -99 -6q53 296 74 733q-160 -224 -495 -733q-18 6 -37 6 q-26 0 -47 -6q-22 87 -55.5 187t-61 171.5t-72 185t-67.5 173.5q-22 -74 -87 -363.5t-77 -353.5q-30 6 -74 6q-37 0 -78 -6z" />
<glyph unicode="&#x43d;" horiz-adv-x="1177" d="M47 -6q53 183 111 522t73 514q99 -6 103 -6q10 0 26.5 1t38.5 2.5t33 2.5q-30 -104 -94 -424q172 -8 274 -8q138 0 260 8q47 281 58 424q99 -6 102 -6q10 0 26.5 1t38.5 2.5t33 2.5q-42 -125 -100.5 -467t-83.5 -569q-44 6 -92 6q-60 0 -109 -6q30 103 63 265t44 233 q-205 14 -258 14q-138 0 -275 -10q-59 -343 -71 -502q-44 6 -92 6q-60 0 -109 -6z" />
<glyph unicode="&#x43e;" horiz-adv-x="1191" d="M66 397q0 120 46 237t127.5 209.5t203.5 150t262 57.5q201 0 311 -116t110 -310q0 -124 -46.5 -241.5t-127 -209t-200.5 -147.5t-256 -56q-109 0 -193.5 34.5t-135 94.5t-76 135t-25.5 162zM258 365q0 -36 4.5 -72t20.5 -82t41.5 -79.5t72.5 -57t109 -23.5q100 0 184 58 t135.5 148t80 192.5t28.5 199.5q0 68 -13 124t-41 101.5t-78 71t-118 25.5q-80 0 -150 -39t-119.5 -103t-85.5 -143.5t-53.5 -162t-17.5 -158.5z" />
<glyph unicode="&#x43f;" horiz-adv-x="1157" d="M47 -6q51 165 108.5 506t75.5 530q152 -12 250 -12h383q90 0 246 12q-52 -174 -106 -489.5t-78 -546.5q-44 6 -92 6q-60 0 -109 -6q88 325 172 913q-93 8 -248 8q-127 0 -250 -6q-60 -294 -89 -464t-62 -451q-44 6 -92 6q-60 0 -109 -6z" />
<glyph unicode="&#x440;" horiz-adv-x="1198" d="M-49 -451q49 164 150.5 731.5t111.5 749.5q12 -1 34.5 -2.5t39.5 -2.5t28 -1q6 0 99 6q-4 -16 -14.5 -56.5t-20 -82t-10.5 -43.5q95 106 182 154.5t205 48.5q175 0 268.5 -107.5t93.5 -294.5q0 -79 -21 -167.5t-67.5 -180t-113 -164.5t-167 -119.5t-219.5 -46.5 q-103 0 -168 31.5t-124 130.5q-72 -405 -86 -584q-51 7 -93 7q-50 0 -108 -7zM287 350q0 -287 237 -287q84 0 153 37t114 99t75.5 145t44 171.5t13.5 182.5q0 129 -60 194.5t-176 65.5q-80 0 -148 -39t-114 -101.5t-78 -143t-46.5 -163t-14.5 -161.5z" />
<glyph unicode="&#x441;" horiz-adv-x="1034" d="M66 393q0 191 88.5 342.5t239 233.5t333.5 82q185 0 338 -90l-78 -154h-24q-71 164 -256 164q-99 0 -185.5 -52.5t-142 -135.5t-87.5 -181.5t-32 -193.5q0 -161 85 -259t243 -98q75 0 140.5 27t162.5 115l14 -23l-43 -100q-167 -99 -352 -99q-207 0 -325.5 115.5 t-118.5 306.5z" />
<glyph unicode="&#x442;" horiz-adv-x="983" d="M111 899q19 54 22 129q189 -18 277 -18h340q86 0 284 18q-22 -56 -22 -129q-126 4 -258 4h-111q-130 -739 -141 -909q-47 6 -94 6q-60 0 -107 -6q62 223 178 909h-110q-132 0 -258 -4z" />
<glyph unicode="&#x443;" horiz-adv-x="1077" d="M57 -451q55 62 171.5 221.5t158.5 225.5q-63 275 -148.5 607.5t-119.5 426.5q52 -6 125 -6q60 0 116 6q-5 -96 46.5 -337.5t117.5 -475.5q126 206 274.5 478t159.5 335q49 -6 103 -6q43 0 86 6q-31 -28 -245.5 -364.5t-426 -693t-229.5 -423.5q-44 7 -82 7q-49 0 -107 -7 z" />
<glyph unicode="&#x444;" horiz-adv-x="1712" d="M66 387q0 131 43 255t111 212.5t154.5 142.5t170.5 54q207 0 295 -152q70 418 82 571q12 -1 34.5 -2.5t39.5 -2.5t28 -1q5 0 98 6q-53 -183 -118 -571q67 73 159.5 112.5t196.5 39.5q123 0 205 -111t82 -297q0 -113 -42 -232.5t-111.5 -217t-170 -160t-207.5 -62.5 q-83 0 -146.5 30t-107.5 103q-66 -373 -80 -557q-51 7 -92 7q-50 0 -108 -7q46 158 116 557q-133 -133 -315 -133q-151 0 -234 119.5t-83 296.5zM246 391q0 -154 60.5 -239.5t137.5 -85.5q82 0 157.5 44.5t119.5 114.5l96 545q-34 99 -75.5 141.5t-129.5 42.5 q-82 0 -148.5 -42.5t-105.5 -106t-65.5 -143t-36.5 -147t-10 -124.5zM885 225q25 -74 81.5 -116.5t137.5 -42.5q96 0 180.5 91.5t133 235t48.5 297.5q0 264 -217 264q-60 0 -107 -23t-81.5 -59t-79.5 -102z" />
<glyph unicode="&#x445;" horiz-adv-x="1032" d="M-68 -6q269 275 488 506q-45 92 -146 272t-151 258q55 -6 123 -6q50 0 100 6q24 -66 85 -185t116 -214q95 99 199.5 216t154.5 183q34 -6 76 -6q41 0 78 6q-70 -65 -238 -234t-229 -237q53 -101 163 -291.5t164 -273.5q-53 6 -112 6q-73 0 -135 -6q-19 69 -81 195.5 t-126 236.5q-45 -45 -188.5 -209t-190.5 -223q-34 6 -72 6q-41 0 -78 -6z" />
<glyph unicode="&#x446;" horiz-adv-x="1210" d="M47 -6q64 258 113.5 542t68.5 494q12 -1 35.5 -2.5t41 -2.5t28.5 -1q3 0 96 6q-89 -325 -170 -919q156 -19 240 -19q126 0 262 19q119 515 153 919q12 -1 35.5 -2.5t41 -2.5t28.5 -1q3 0 96 6q-97 -359 -170 -924l146 11l-103 -414h-65q34 111 34 180t-31 93t-91 24 q-83 0 -187.5 -3t-113.5 -3q-12 0 -153.5 3t-211.5 3q-18 0 -123 -6z" />
<glyph unicode="&#x447;" horiz-adv-x="1167" d="M184 627q0 40 20.5 181t26.5 222q99 -6 103 -6q10 0 26.5 1t38.5 2.5t33 2.5q-67 -240 -67 -334q0 -239 235 -239q77 0 138 19t114 71q57 342 68 483q99 -6 102 -6q10 0 26.5 1t38.5 2.5t33 2.5q-50 -163 -105.5 -492t-78.5 -544q-44 6 -92 6q-60 0 -109 -6 q20 70 44.5 179t39 183.5t15.5 87.5q-136 -96 -316 -96q-135 0 -234.5 79t-99.5 200z" />
<glyph unicode="&#x448;" horiz-adv-x="1646" d="M47 -6q48 171 111 523.5t73 512.5q99 -6 103 -6q10 0 26.5 1t38.5 2.5t33 2.5q-78 -264 -172 -919q77 -19 203 -19q99 0 196 19q55 236 89.5 440t66.5 479q99 -6 103 -6q10 0 26.5 1t38.5 2.5t33 2.5q-44 -169 -78 -342.5t-48 -265.5t-46 -313q105 -17 190 -17 q76 0 209 17q117 522 156 921q99 -6 102 -6q10 0 26.5 1t38.5 2.5t33 2.5q-50 -175 -104 -488.5t-80 -547.5q-73 6 -166 6q-61 0 -242 -3t-276 -3q-52 0 -226 3t-269 3q-124 0 -189 -6z" />
<glyph unicode="&#x449;" horiz-adv-x="1691" d="M47 -6q48 171 111 523.5t73 512.5q99 -6 103 -6q10 0 26.5 1t38.5 2.5t33 2.5q-78 -264 -172 -919q77 -19 203 -19q99 0 196 19q55 236 89.5 440t66.5 479q99 -6 103 -6q10 0 26.5 1t38.5 2.5t33 2.5q-44 -169 -78 -342.5t-48 -265.5t-46 -313q105 -17 190 -17 q76 0 209 17q117 522 156 921q99 -6 102 -6q10 0 26.5 1t38.5 2.5t33 2.5q-51 -183 -108 -518q-48 -257 -61 -406l145 11l-102 -414h-66q35 122 35 176q0 73 -30.5 97t-92.5 24q-41 0 -264.5 -3t-323.5 -3q-52 0 -226 3t-269 3q-124 0 -189 -6z" />
<glyph unicode="&#x44a;" horiz-adv-x="1208" d="M96 905q23 68 23 125q34 -6 153 -6h215q10 0 26.5 1t39 2.5t33.5 2.5q-47 -164 -92 -409q13 0 87.5 3t114.5 3q406 0 406 -244q0 -177 -135 -283t-381 -106q-30 0 -124 3t-143 3q-71 0 -118 -6q41 133 93 427t81 497q-34 6 -92 6q-24 0 -94 -5t-93 -14zM412 88 q47 -14 184 -14q150 0 230.5 83.5t80.5 219.5q0 60 -35 100t-82.5 55t-105.5 15q-103 0 -205 -15q-58 -340 -67 -444z" />
<glyph unicode="&#x44b;" horiz-adv-x="1476" d="M47 -6q56 191 114.5 538t69.5 498q99 -6 103 -6q10 0 26.5 1t38.5 2.5t33 2.5q-47 -164 -92 -409q12 0 87.5 3t115.5 3q405 0 405 -248q0 -176 -136.5 -280.5t-379.5 -104.5q-30 0 -123.5 3t-142.5 3q-72 0 -119 -6zM258 88q47 -14 184 -14q149 0 230.5 83t81.5 218 q0 38 -13.5 68.5t-35 49.5t-51 31.5t-60 17.5t-64.5 5q-102 0 -204 -15q-60 -353 -68 -444zM1044 -6q76 318 109.5 509t75.5 527q99 -6 102 -6q10 0 26.5 1t39 2.5t33.5 2.5q-74 -305 -108 -498t-77 -538q-43 6 -92 6q-59 0 -109 -6z" />
<glyph unicode="&#x44c;" horiz-adv-x="1054" d="M47 -6q56 191 114.5 538t69.5 498q99 -6 103 -6q10 0 26.5 1t38.5 2.5t33 2.5q-47 -164 -92 -409q12 0 87.5 3t115.5 3q405 0 405 -248q0 -176 -136.5 -280.5t-379.5 -104.5q-30 0 -123.5 3t-142.5 3q-72 0 -119 -6zM258 88q47 -14 184 -14q149 0 230.5 83t81.5 218 q0 38 -13.5 68.5t-35 49.5t-51 31.5t-60 17.5t-64.5 5q-102 0 -204 -15q-60 -353 -68 -444z" />
<glyph unicode="&#x44d;" horiz-adv-x="1034" d="M-12 51q20 35 44.5 88.5t33.5 81.5q37 -78 109.5 -122t162.5 -44q150 0 274 118t158 310h-246q-89 0 -229 -16q17 49 24 133q132 -16 222 -16h245q9 45 9 78q0 141 -71 231t-212 90q-112 0 -187.5 -42.5t-142.5 -121.5h-16l-27 142q160 90 402 90q202 0 315 -114.5 t113 -305.5q0 -179 -76.5 -329t-220.5 -240.5t-326 -90.5q-116 0 -201.5 15.5t-156.5 64.5z" />
<glyph unicode="&#x44e;" horiz-adv-x="1607" d="M49 -6q49 170 109 518.5t73 517.5q12 -1 35 -2.5t40 -2.5t28 -1q5 0 98 6q-28 -99 -59 -250t-37 -192h174q61 211 228.5 337t381.5 126q200 0 311 -115t111 -307q0 -174 -82.5 -325t-229 -242t-321.5 -91q-202 0 -316 114.5t-114 299.5q0 46 10 111h-170 q-59 -343 -69 -502q-46 6 -94 6q-60 0 -107 -6zM672 367q0 -141 62 -228.5t186 -87.5q120 0 219.5 85.5t155 227t55.5 306.5q0 134 -61 217.5t-189 83.5q-94 0 -176 -56t-136 -144t-85 -194.5t-31 -209.5z" />
<glyph unicode="&#x44f;" horiz-adv-x="1064" d="M-39 -6q87 68 254.5 219t247.5 231q-122 0 -209.5 66t-87.5 178q0 71 30 136t85 116t140 81t187 30q42 0 150 -13.5t125 -13.5q89 0 135 6q-54 -194 -107 -498.5t-75 -537.5q-46 6 -95 6q-59 0 -106 -6q19 71 43.5 184t38.5 187.5t16 87.5q-45 -9 -88 -9 q-78 -76 -233 -237.5t-201 -212.5q-53 6 -125 6q-70 0 -125 -6zM356 698q0 -174 234 -174q56 0 160 27q38 216 57 373q-61 34 -164 34q-134 0 -210.5 -68.5t-76.5 -191.5z" />
<glyph unicode="&#x451;" d="M66 377q0 95 22.5 189.5t71.5 182t118.5 154.5t171 107.5t220.5 40.5q183 0 273.5 -87.5t90.5 -265.5q0 -77 -30 -204q-156 16 -254 16h-478q-14 -80 -14 -158q0 -148 73.5 -224.5t217.5 -76.5q101 0 186.5 40.5t173.5 121.5l17 -20l-43 -103q-190 -119 -394 -119 q-199 0 -311 109t-112 297zM289 602h540q17 102 17 131q0 102 -53.5 170t-147.5 68q-128 0 -220.5 -102t-135.5 -267zM381 1298q0 49 37.5 90.5t95.5 41.5q49 0 71.5 -21.5t22.5 -54.5q0 -57 -34 -101.5t-99 -44.5q-49 0 -71.5 26t-22.5 64zM778 1298q0 49 37.5 90.5 t95.5 41.5q49 0 72 -21.5t23 -54.5q0 -57 -34.5 -101.5t-99.5 -44.5q-49 0 -71.5 26t-22.5 64z" />
<glyph unicode="&#x452;" horiz-adv-x="1163" d="M47 -6q33 107 115.5 550.5t120.5 696.5q-109 0 -148 -16q20 61 23 127q48 -19 141 -19q30 216 33 275q12 -1 35 -2.5t40.5 -2.5t28.5 -1q3 0 96 6q-38 -145 -61 -275h340q56 0 139 19q-14 -51 -22 -127q-57 16 -131 16h-346l-68 -383q67 96 166.5 144.5t202.5 48.5 q132 0 216.5 -70.5t84.5 -189.5q0 -61 -51 -351.5t-91 -439.5q-20 -74 -60.5 -149t-96.5 -141t-132.5 -108t-156.5 -42q-64 0 -140.5 24t-113.5 58q23 30 92 149q64 -149 172 -149q114 0 179 93.5t104 297.5q49 254 75.5 429.5t26.5 217.5q0 135 -49.5 194.5t-148.5 59.5 q-51 0 -94 -14t-76.5 -38.5t-61 -63.5t-48 -84t-37.5 -105t-29 -120.5t-23 -138t-19.5 -150t-18.5 -161.5q-5 -43 -7 -65q-44 6 -92 6q-60 0 -109 -6z" />
<glyph unicode="&#x453;" horiz-adv-x="880" d="M47 -6q56 214 108.5 515t73.5 521q100 -20 283 -20q179 0 408 18q-23 -76 -23 -131q-249 14 -496 14q-54 -243 -90 -449.5t-63 -467.5q-46 6 -94 6q-60 0 -107 -6zM477 1073q181 234 242 342q76 -12 121 -12q34 0 114 12l7 -29q-254 -180 -406 -313h-78z" />
<glyph unicode="&#x454;" horiz-adv-x="1034" d="M66 391q0 180 83.5 330.5t236 240t341.5 89.5t338 -90l-78 -154h-24q-71 164 -256 164q-78 0 -147.5 -32t-121.5 -86.5t-89.5 -120t-59.5 -138.5h239q74 0 232 18q-8 -24 -17 -69q-5 -23 -8 -66q-137 19 -219 19h-248q-8 -36 -8 -93q0 -158 86 -255t242 -97 q79 0 148 32.5t155 109.5l14 -23l-43 -100q-167 -99 -352 -99q-203 0 -323.5 114.5t-120.5 305.5z" />
<glyph unicode="&#x455;" horiz-adv-x="841" d="M8 55q38 54 92 150q38 -88 91 -121t126 -33q108 0 178 65t70 158q0 68 -51.5 104t-157.5 66q-113 32 -165 88.5t-52 145.5q0 157 119.5 265t292.5 108q77 0 127.5 -16.5t101.5 -53.5q-47 -70 -88 -150q-31 79 -77.5 109.5t-108.5 30.5q-88 0 -148.5 -61t-60.5 -140 q0 -70 49 -110t141 -64q131 -34 184.5 -82t53.5 -135q0 -74 -36 -147.5t-96.5 -131t-147.5 -93.5t-181 -36q-160 0 -256 84z" />
<glyph unicode="&#x456;" horiz-adv-x="589" d="M98 -6q76 318 109.5 509t75.5 527q99 -6 102 -6q10 0 26.5 1t38.5 2.5t33 2.5q-74 -303 -107.5 -495t-76.5 -541q-43 6 -92 6q-59 0 -109 -6zM340 1389q0 49 37.5 90t95.5 41q49 0 71.5 -21.5t22.5 -54.5q0 -57 -34 -101.5t-99 -44.5q-49 0 -71.5 26.5t-22.5 64.5z" />
<glyph unicode="&#x457;" horiz-adv-x="589" d="M98 -6q76 318 109.5 509t75.5 527q99 -6 102 -6q10 0 26.5 1t38.5 2.5t33 2.5q-74 -303 -107.5 -495t-76.5 -541q-43 6 -92 6q-59 0 -109 -6zM156 1389q0 49 37.5 90t95.5 41q49 0 71.5 -21.5t22.5 -54.5q0 -57 -34 -101.5t-99 -44.5q-49 0 -71.5 26.5t-22.5 64.5z M516 1389q0 49 37.5 90t95.5 41q49 0 71.5 -21.5t22.5 -54.5q0 -57 -34 -101.5t-99 -44.5q-49 0 -71.5 26.5t-22.5 64.5z" />
<glyph unicode="&#x458;" horiz-adv-x="600" d="M-162 -377l60 15q52 12 94.5 55t70.5 104t44.5 117.5t27.5 116.5q59 338 84 483.5t47 293t27 222.5q12 -1 35 -2.5t40.5 -2.5t28.5 -1q4 0 97 6q-69 -251 -195 -999q-10 -57 -17.5 -91.5t-23.5 -84.5t-35.5 -81.5t-53 -69.5t-77 -63t-106 -47.5t-140.5 -35.5zM350 1389 q0 49 37.5 90t95.5 41q49 0 72 -21.5t23 -54.5q0 -57 -34.5 -101.5t-99.5 -44.5q-49 0 -71.5 26.5t-22.5 64.5z" />
<glyph unicode="&#x459;" horiz-adv-x="1550" d="M-68 -6q32 24 288.5 431t375.5 605q27 -6 57 -6q31 0 66 6l67 -418q151 21 242 21q194 0 305 -65.5t111 -186.5q0 -175 -139.5 -281t-391.5 -106q-13 0 -48 3t-48 3q-63 0 -127 -6q-10 150 -45.5 393.5t-73.5 433.5q-111 -169 -274 -457.5t-186 -369.5q-87 6 -91 6 q-51 0 -88 -6zM805 524l74 -442q66 -8 112 -8q108 0 182 79.5t74 215.5q0 52 -21.5 90t-57.5 57.5t-73.5 28t-78.5 8.5q-103 0 -211 -29z" />
<glyph unicode="&#x45a;" horiz-adv-x="1753" d="M47 -6q58 220 108.5 505t75.5 531q99 -6 103 -6q10 0 26.5 1t38.5 2.5t33 2.5q-30 -104 -94 -424q172 -8 274 -8q138 0 260 8q47 281 58 424q99 -6 102 -6q10 0 26.5 1t38.5 2.5t33 2.5q-47 -164 -92 -409q12 0 87.5 3t115.5 3q406 0 406 -250q0 -170 -135 -276.5 t-382 -106.5q-30 0 -123.5 3t-142.5 3q-72 0 -119 -6q30 103 63 265t44 233q-205 14 -258 14q-138 0 -275 -10q-59 -343 -71 -502q-44 6 -92 6q-60 0 -109 -6zM956 88q47 -14 185 -14q148 0 229.5 82.5t81.5 216.5q0 48 -19.5 83t-52.5 54t-71 28t-80 9q-103 0 -205 -15 q-60 -353 -68 -444z" />
<glyph unicode="&#x45b;" horiz-adv-x="1163" d="M47 -6q28 94 101.5 491.5t132.5 755.5q-107 0 -148 -16q23 61 23 127q48 -19 141 -19q27 173 33 275q12 -1 35 -2.5t40.5 -2.5t28.5 -1q3 0 96 6q-43 -182 -61 -275h340q61 0 139 19q-15 -53 -22 -127q-55 16 -131 16h-346q-43 -234 -58 -371q65 89 161.5 135t197.5 46 q137 0 220 -74t83 -203q0 -19 -27.5 -157.5t-58 -321t-35.5 -301.5q-46 6 -94 6q-60 0 -107 -6q36 116 81.5 363.5t45.5 340.5q0 236 -199 236q-52 0 -94.5 -13t-77.5 -43t-62 -69t-50 -102t-40 -129t-32.5 -163.5t-28 -192.5t-26.5 -228q-46 6 -94 6q-60 0 -107 -6z" />
<glyph unicode="&#x45c;" horiz-adv-x="1069" d="M47 -6q52 174 107.5 499t76.5 537q99 -6 103 -6q10 0 26.5 1t38.5 2.5t33 2.5q-29 -98 -58.5 -242.5t-39.5 -207.5h33q45 0 263 195.5t263 254.5q81 -6 98 -6q4 0 103 6l-568 -438q41 -61 193 -274t235 -324q-80 6 -120 6q-70 0 -138 -6q-36 81 -141.5 242.5 t-198.5 287.5h-32q-1 -4 -15 -89.5t-23.5 -149t-21.5 -150.5t-16 -141q-44 6 -92 6q-60 0 -109 -6zM573 1100q181 234 242 342q79 -12 121 -12q39 0 115 12l6 -29q-254 -180 -406 -313h-78z" />
<glyph unicode="&#x45e;" horiz-adv-x="1077" d="M57 -451q55 62 169.5 220.5t158.5 226.5q-61 270 -146.5 604.5t-121.5 429.5q56 -6 127 -6q62 0 114 6q-5 -95 46 -331.5t118 -481.5q121 195 272 472t162 341q52 -6 105 -6q43 0 84 6q-32 -29 -246 -365t-425 -692.5t-228 -423.5q-47 7 -84 7q-51 0 -105 -7zM410 1284 q30 62 51 150l4 4q32 -76 95.5 -115t139.5 -39q181 0 299 154l9 -4q-13 -76 -4 -150q-161 -76 -316 -76q-60 0 -139.5 20t-138.5 56z" />
<glyph unicode="&#x45f;" horiz-adv-x="1165" d="M47 -6q51 181 109.5 519.5t72.5 516.5q12 -1 35 -2.5t40 -2.5t28 -1q5 0 98 6q-66 -275 -100 -459t-70 -460q156 -19 240 -19q126 0 262 19q63 296 93.5 475.5t59.5 443.5q12 -1 35 -2.5t40 -2.5t28 -1q5 0 98 6q-47 -164 -107 -503t-75 -533q-144 6 -309 6 q-101 0 -152 -291h-67q16 94 16 146q0 80 -22 112.5t-64 32.5q-178 0 -289 -6z" />
<glyph unicode="&#x490;" horiz-adv-x="1067" d="M104 -6q77 350 155.5 787t107.5 702q129 -6 297 -6h204q133 0 183 57.5t69 228.5h64q-7 -42 -20.5 -196t-14.5 -215q-169 16 -426 16h-170q-48 -229 -125 -676t-106 -698q-99 6 -103 6q-16 0 -115 -6z" />
<glyph unicode="&#x491;" horiz-adv-x="880" d="M47 -6q54 191 104 480t80 556q98 -20 283 -20h195q90 0 128 64.5t52 215.5h63q-38 -211 -55 -393q-246 14 -496 14q-107 -444 -153 -917q-44 6 -92 6q-60 0 -109 -6z" />
<glyph unicode="&#x2000;" horiz-adv-x="1006" />
<glyph unicode="&#x2001;" horiz-adv-x="2013" />
<glyph unicode="&#x2002;" horiz-adv-x="1006" />
<glyph unicode="&#x2003;" horiz-adv-x="2013" />
<glyph unicode="&#x2004;" horiz-adv-x="671" />
<glyph unicode="&#x2005;" horiz-adv-x="503" />
<glyph unicode="&#x2006;" horiz-adv-x="335" />
<glyph unicode="&#x2007;" horiz-adv-x="335" />
<glyph unicode="&#x2008;" horiz-adv-x="251" />
<glyph unicode="&#x2009;" horiz-adv-x="402" />
<glyph unicode="&#x200a;" horiz-adv-x="111" />
<glyph unicode="&#x2010;" horiz-adv-x="745" d="M45 483l21 115h679l-20 -115h-680z" />
<glyph unicode="&#x2011;" horiz-adv-x="745" d="M45 483l21 115h679l-20 -115h-680z" />
<glyph unicode="&#x2012;" horiz-adv-x="745" d="M45 483l21 115h679l-20 -115h-680z" />
<glyph unicode="&#x2013;" horiz-adv-x="1216" d="M55 483l21 115h1085l-20 -115h-1086z" />
<glyph unicode="&#x2014;" horiz-adv-x="1622" d="M55 483l21 115h1493l-21 -115h-1493z" />
<glyph unicode="&#x2018;" horiz-adv-x="600" d="M113 971q0 66 90 174l282 360l47 -20l-219 -451q-59 -123 -133 -123q-67 0 -67 60z" />
<glyph unicode="&#x2019;" horiz-adv-x="600" d="M113 932l219 450q59 123 133 123q67 0 67 -57q0 -62 -90 -176l-282 -361z" />
<glyph unicode="&#x201a;" horiz-adv-x="602" d="M45 -379l236 488q56 112 131 112q69 0 69 -57t-86 -172l-309 -398z" />
<glyph unicode="&#x201c;" horiz-adv-x="921" d="M113 971q0 66 90 174l282 360l47 -20l-219 -451q-59 -123 -133 -123q-67 0 -67 60zM428 971q0 66 90 174l283 360l47 -20l-219 -451q-59 -123 -133 -123q-68 0 -68 60z" />
<glyph unicode="&#x201d;" horiz-adv-x="921" d="M104 932l220 450q59 123 133 123q67 0 67 -57q0 -62 -90 -176l-282 -361zM403 932l220 450q59 123 133 123q67 0 67 -57q0 -62 -90 -176l-282 -361z" />
<glyph unicode="&#x201e;" horiz-adv-x="1001" d="M45 -379l236 488q56 112 131 112q69 0 69 -57t-86 -172l-309 -398zM444 -379l236 488q56 112 131 112q70 0 70 -57t-86 -172l-310 -398z" />
<glyph unicode="&#x2026;" horiz-adv-x="1923" d="M205 74q0 61 46.5 104t102.5 43q49 0 77 -32t28 -76q0 -60 -49 -101t-101 -41q-51 0 -77.5 31t-26.5 72zM834 74q0 61 46.5 104t102.5 43q48 0 76 -32t28 -76q0 -60 -48.5 -101t-100.5 -41q-51 0 -77.5 31t-26.5 72zM1462 74q0 61 47 104t103 43q48 0 76 -32t28 -76 q0 -60 -48.5 -101t-100.5 -41t-78.5 31t-26.5 72z" />
<glyph unicode="&#x202f;" horiz-adv-x="402" />
<glyph unicode="&#x2039;" horiz-adv-x="481" d="M84 516q204 226 311 373q23 -68 92 -86q-54 -55 -132 -144.5t-119 -142.5q13 -32 70.5 -144t82.5 -155q-70 -17 -125 -72q-108 253 -180 371z" />
<glyph unicode="&#x203a;" horiz-adv-x="481" d="M-10 217q37 40 134 152t126 147q-51 120 -150 287q73 18 121 86q48 -132 180 -373q-120 -123 -311 -371q-36 55 -100 72z" />
<glyph unicode="&#x205f;" horiz-adv-x="503" />
<glyph unicode="&#x20ac;" horiz-adv-x="1202" d="M61 569l45 76h105q1 9 5 35t5 35q1 6 15 63h-138l45 76h111q43 145 97.5 251t131.5 186t182.5 120.5t239.5 40.5q258 0 338 -123l-18 -174h-41q4 110 -65.5 163.5t-192.5 53.5q-98 0 -176 -36t-135.5 -107t-99 -161.5t-75.5 -213.5h615l-45 -76h-588q-2 -10 -6 -33.5 t-6 -31.5q-10 -46 -13 -68h531l-45 -76h-494q-26 -250 52.5 -385t252.5 -135q72 0 135 20t118.5 71.5t80.5 129.5h41l-43 -168q-127 -131 -383 -131q-490 0 -436 598h-146z" />
<glyph unicode="&#x2122;" horiz-adv-x="1421" d="M74 1403q10 30 10 39q2 6 2 35q136 -11 293 -11q132 0 260 11q-5 -17 -10 -39q-2 -10 -2 -35q-49 8 -105 8h-110q-74 -329 -119 -686q-24 4 -49 4q-24 0 -60 -4q68 295 123 686h-102q-77 0 -131 -8zM467 725q49 123 238 741h20q114 -364 211 -585q290 391 420 585h20 q-10 -112 -25.5 -367t-15.5 -374q-28 4 -51 4q-27 0 -55 -4q39 404 39 543q-189 -265 -375 -539h-21q-123 384 -176 531q-120 -386 -145 -535q-24 4 -39 4q-17 0 -45 -4z" />
<glyph unicode="&#x25fc;" horiz-adv-x="1034" d="M0 0v1034h1034v-1034h-1034z" />
</font>
</defs>
</svg>
